<svg width="129" height="36" viewBox="0 0 129 36" fill="none" xmlns="http://www.w3.org/2000/svg">
<path fill-rule="evenodd" clip-rule="evenodd" d="M18.2268 0.0140952C8.55162 -0.370438 0.398667 7.15999 0.0140938 16.8342C-0.370479 26.5084 7.16235 34.6605 16.836 35.045C26.5112 35.4296 34.6641 27.8991 35.0487 18.2249C35.4317 8.55072 27.9005 0.397026 18.2268 0.0140952ZM25.6267 25.6945C25.4087 26.079 24.9841 26.2713 24.5707 26.2136C24.4441 26.196 24.3175 26.1543 24.1989 26.087C21.8819 24.7684 19.3565 23.9096 16.6934 23.5347C14.0302 23.1598 11.3654 23.2895 8.77435 23.9192C8.21191 24.0554 7.64627 23.7109 7.51007 23.1485C7.37386 22.5862 7.71838 22.0206 8.28082 21.8844C11.1299 21.1922 14.059 21.0496 16.985 21.4614C19.911 21.8732 22.6863 22.8169 25.2357 24.2669C25.7372 24.5537 25.9135 25.1914 25.6283 25.6945H25.6267ZM27.9309 21.0929C27.5736 21.753 26.7467 21.9998 26.0866 21.6425C23.3753 20.1764 20.4397 19.2135 17.3616 18.7809C14.2834 18.3483 11.1972 18.4653 8.18628 19.127C8.02283 19.1622 7.86099 19.1686 7.70396 19.1462C7.15754 19.0693 6.68964 18.6623 6.56466 18.0903C6.40282 17.3565 6.86751 16.6307 7.6014 16.4689C10.9296 15.7367 14.341 15.6069 17.7413 16.0844C21.14 16.5618 24.3848 17.6257 27.3813 19.2471C28.0431 19.6044 28.2882 20.4296 27.9309 21.0913V21.0929ZM30.4851 15.9049C30.1486 16.5522 29.4484 16.8871 28.7657 16.7909C28.5815 16.7653 28.4004 16.7076 28.2257 16.6179C25.069 14.9756 21.6688 13.8909 18.1195 13.3926C14.5702 12.8943 11.0017 13.0001 7.51487 13.7083C6.60792 13.8925 5.72501 13.3061 5.54073 12.4009C5.35646 11.494 5.94293 10.6112 6.84828 10.4269C10.71 9.64344 14.6583 9.52647 18.5858 10.0776C22.5132 10.6288 26.2756 11.8305 29.7721 13.649C30.5925 14.0752 30.9113 15.0862 30.4851 15.9065V15.9049Z" fill="white"/>
<path fill-rule="evenodd" clip-rule="evenodd" d="M49.1561 26.691C46.1324 26.691 43.5365 25.6448 42.4517 24.456C42.3491 24.339 42.3347 24.2749 42.3347 24.1323V20.593C42.3347 20.4248 42.4773 20.3607 42.5927 20.5033C43.897 22.1311 46.6756 23.461 48.9494 23.461C50.7585 23.461 51.9731 22.9707 51.9731 21.3685C51.9731 20.4119 51.5212 19.7919 49.0535 19.0949L47.6322 18.6944C44.3377 17.7651 42.3347 16.666 42.3347 13.5144C42.3347 10.7249 44.9178 8.27033 49.233 8.27033C51.3514 8.27033 53.4569 8.92884 54.6715 9.83409C54.7741 9.911 54.8141 9.98951 54.8141 10.1305V13.3478C54.8141 13.5673 54.6331 13.6314 54.4648 13.4904C53.4825 12.6764 51.5837 11.5789 49.3356 11.5789C47.0874 11.5789 46.0282 12.5867 46.0282 13.516C46.0282 14.4982 46.7124 14.7689 49.1545 15.4931L50.3691 15.8552C54.1283 16.9784 55.6666 18.555 55.6666 21.165C55.6666 24.5232 52.8768 26.6943 49.1561 26.6943V26.691ZM75.4977 19.9473C75.4977 17.8933 76.9191 16.3695 78.9221 16.3695C80.925 16.3695 82.3319 17.8933 82.3319 19.9473C82.3319 22.0014 80.9106 23.5251 78.9221 23.5251C76.9335 23.5251 75.4977 22.0014 75.4977 19.9473ZM78.9076 26.691C83.0802 26.691 85.987 23.7077 85.987 19.9473C85.987 16.1869 83.0802 13.2036 78.9076 13.2036C74.735 13.2036 71.8411 16.1613 71.8411 19.9473C71.8411 23.7334 74.7222 26.691 78.9076 26.691ZM104.1 12.4297V13.5144H101.904C101.787 13.5144 101.722 13.5785 101.722 13.6954V16.2782C101.722 16.3952 101.787 16.4593 101.904 16.4593H104.1V26.1992C104.1 26.3161 104.164 26.3802 104.281 26.3802H107.589C107.706 26.3802 107.77 26.3161 107.77 26.1992V16.4593H110.6L114.708 25.3852L112.499 30.2416C112.434 30.3842 112.511 30.4483 112.641 30.4483H116.168C116.285 30.4483 116.336 30.4226 116.387 30.3057L123.686 13.7195C123.738 13.6025 123.674 13.5128 123.544 13.5128H120.236C120.119 13.5128 120.068 13.5384 120.017 13.6554L116.684 21.6649L113.338 13.6554C113.287 13.5384 113.236 13.5128 113.119 13.5128H107.77V12.6604C107.77 11.2649 108.714 10.6192 109.927 10.6192C110.649 10.6192 111.438 10.9941 111.994 11.329C112.124 11.4059 112.213 11.3161 112.162 11.1992L110.999 8.42254C110.96 8.33281 110.909 8.27994 110.818 8.22867C110.249 7.93226 109.319 7.6727 108.414 7.6727C105.676 7.6727 104.099 9.7652 104.099 12.4265L104.1 12.4297ZM65.1623 26.6125C68.4697 26.6125 70.846 23.7574 70.846 19.9217C70.846 16.086 68.4424 13.2821 65.1351 13.2821C62.6802 13.2821 61.2589 14.7801 60.4321 16.2782V13.6954C60.4321 13.5785 60.368 13.5144 60.251 13.5144H57.0078C56.8908 13.5144 56.8267 13.5785 56.8267 13.6954V30.2688C56.8267 30.3858 56.8908 30.4499 57.0078 30.4499H60.251C60.368 30.4499 60.4321 30.3858 60.4321 30.2688V23.642C61.2589 25.1401 62.6546 26.6125 65.1607 26.6125H65.1623ZM92.7571 26.5613C93.8419 26.5613 94.8883 26.2777 95.5084 25.9156C95.5981 25.8643 95.6109 25.813 95.6109 25.7217V23.2671C95.6109 23.1373 95.5468 23.0989 95.4299 23.1646C95.0549 23.3712 94.5646 23.5395 93.8932 23.5395C92.834 23.5395 92.1626 22.9194 92.1626 21.5495V16.4593H95.393C95.51 16.4593 95.5741 16.3952 95.5741 16.2782V13.6954C95.5741 13.5785 95.51 13.5144 95.393 13.5144H92.1626V10.1433C92.1626 10.0007 92.0729 9.92382 91.9431 10.0264L86.1681 14.5735C86.0911 14.6375 86.0655 14.7032 86.0655 14.8058V16.2782C86.0655 16.3952 86.1296 16.4593 86.2466 16.4593H88.4947V22.0911C88.4947 25.1401 90.2509 26.5613 92.7587 26.5613H92.7571ZM96.4906 9.6915C96.4906 10.8547 97.3944 11.7327 98.6346 11.7327C99.8749 11.7327 100.804 10.8547 100.804 9.6915C100.804 8.52828 99.9005 7.65027 98.6346 7.65027C97.3687 7.65027 96.4906 8.52828 96.4906 9.6915ZM96.9938 26.3818H100.301C100.418 26.3818 100.482 26.3177 100.482 26.2008V13.697C100.482 13.5801 100.418 13.516 100.301 13.516H96.9938C96.8768 13.516 96.8127 13.5801 96.8127 13.697V26.2008C96.8127 26.3177 96.8768 26.3818 96.9938 26.3818ZM60.3552 19.8976C60.9497 17.9077 62.3181 16.384 64.1785 16.384C66.0389 16.384 67.1749 17.7266 67.1749 19.9233C67.1749 22.1199 65.9475 23.4882 64.1785 23.4882C62.4094 23.4882 60.9481 21.7834 60.3552 19.8976Z" fill="white"/>
<path fill-rule="evenodd" clip-rule="evenodd" d="M127.923 14.2739C127.753 13.9807 127.518 13.7516 127.217 13.5849C126.915 13.4199 126.579 13.3365 126.204 13.3365C125.829 13.3365 125.492 13.4199 125.191 13.5849C124.89 13.7516 124.654 13.9807 124.485 14.2739C124.315 14.5672 124.23 14.8989 124.23 15.269C124.23 15.6392 124.315 15.9645 124.485 16.2577C124.654 16.5509 124.89 16.7801 125.191 16.9467C125.492 17.1134 125.829 17.1951 126.204 17.1951C126.579 17.1951 126.915 17.1118 127.217 16.9467C127.518 16.7817 127.753 16.5509 127.923 16.2577C128.093 15.9645 128.178 15.636 128.178 15.269C128.178 14.9021 128.093 14.5672 127.923 14.2739ZM127.614 16.0943C127.476 16.3378 127.284 16.5269 127.039 16.6647C126.794 16.8009 126.515 16.8698 126.205 16.8698C125.896 16.8698 125.609 16.8009 125.364 16.6647C125.119 16.5285 124.928 16.3378 124.792 16.0943C124.656 15.8523 124.589 15.5767 124.589 15.269C124.589 14.9614 124.656 14.6874 124.792 14.447C124.928 14.2066 125.119 14.0176 125.364 13.8814C125.609 13.7452 125.89 13.6763 126.205 13.6763C126.521 13.6763 126.794 13.7452 127.039 13.8814C127.284 14.0176 127.476 14.2082 127.614 14.4518C127.752 14.6954 127.821 14.9694 127.821 15.277C127.821 15.5847 127.752 15.8523 127.614 16.0959V16.0943Z" fill="white"/>
<path fill-rule="evenodd" clip-rule="evenodd" d="M126.875 15.232C127.006 15.1359 127.072 15.0077 127.072 14.849C127.072 14.6904 127.008 14.5558 126.88 14.4596C126.752 14.3635 126.566 14.3154 126.322 14.3154H125.463V16.1101H125.878V15.397H126.104L126.651 16.1101H127.16L126.563 15.3538C126.689 15.3297 126.797 15.2897 126.877 15.2304L126.875 15.232ZM126.257 15.0734H125.878V14.6343H126.271C126.388 14.6343 126.478 14.6519 126.54 14.6888C126.603 14.7256 126.635 14.7817 126.635 14.8586C126.635 14.9307 126.601 14.9852 126.537 15.0205C126.471 15.0573 126.378 15.075 126.257 15.075V15.0734Z" fill="white"/>
</svg>
