<?xml version="1.0" encoding="UTF-8"?>
<svg id="_레이어_1" data-name="레이어 1" xmlns="http://www.w3.org/2000/svg" version="1.1" viewBox="0 0 176.3 77.3">
  <defs>
    <style>
      .cls-1 {
        fill: #ffffff;
        stroke-width: 0px;
      }
    </style>
  </defs>
  <path class="cls-1" d="M144.9,41c-1.1-1.2-2.2-2.3-3.4-3.3.8-.7,1.5-1.5,2.3-2.4L172.8,0h-24.8l-16.7,20.3c-4.6,5.5-7.3,7.8-12.3,7.8s-7.7-2.4-12.3-7.8L90.1,0h-24.8s29,35.3,29,35.3c.8.9,1.6,1.7,2.4,2.5-1.1,1-2.2,2-3.3,3.2l-14.8,17.1h-29.3c-16.9,0-27.4-10.1-27.4-26.4V1H0v30.8c0,36.2,26,45.6,48.2,45.6h35.9c2.8,0,4.3-.6,5.7-2.3l16.5-19.1c4.7-5.5,7.6-7.8,12.8-7.8s8,2.3,12.8,7.8l18.4,21.4h25.9l-31.3-36.3Z"/>
</svg>