<?xml version="1.0" encoding="UTF-8"?>
<svg id="_격리_모드" data-name="격리 모드" xmlns="http://www.w3.org/2000/svg" version="1.1" viewBox="0 0 283 242">
  <defs>
    <style>
      .cls-1 {
        fill: #e29b8d;
      }

      .cls-1, .cls-2, .cls-3, .cls-4, .cls-5, .cls-6, .cls-7, .cls-8, .cls-9, .cls-10, .cls-11, .cls-12 {
        stroke-width: 0px;
      }

      .cls-2 {
        fill: #545454;
      }

      .cls-3 {
        fill: #70708c;
      }

      .cls-4 {
        fill: #c8c8e6;
      }

      .cls-5 {
        fill: #f7e5da;
      }

      .cls-6 {
        fill: #ff9452;
      }

      .cls-7 {
        fill: #ffbe63;
      }

      .cls-8 {
        fill: #567ad6;
      }

      .cls-9 {
        fill: #a3e646;
      }

      .cls-10 {
        fill: #fff;
      }

      .cls-11 {
        fill: #2b244a;
      }

      .cls-12 {
        fill: #8d84b8;
      }
    </style>
  </defs>
  <g>
    <g>
      <g>
        <path class="cls-4" d="M50.1,169.2v70.3c-2-.2-4-.4-6-.6v-69.8h6Z"/>
        <path class="cls-4" d="M34.4,169.2v68.7c-2-.2-3.9-.4-5.8-.7v-32.4c-.1,0-.2-20.5-.2-20.5v-15.1c0,0,6,0,6,0Z"/>
        <path class="cls-6" d="M39.2,166.2h0c6,0,10.9,4.9,10.9,10.9v.4h-21.8v-.4c0-6,4.9-10.9,10.9-10.9Z"/>
        <path class="cls-6" d="M39.2,161.9h0c2.7,0,4.9,2.2,4.9,4.9v3.8h-9.7v-3.8c0-2.7,2.2-4.9,4.9-4.9Z"/>
      </g>
      <g>
        <rect class="cls-11" x="36" y="157.9" width="6.5" height="33.8"/>
        <path class="cls-11" d="M36,191.6c0-.2,1.4-.4,3.2-.4s3.2.2,3.2.4-1.4.4-3.2.4-3.2-.2-3.2-.4Z"/>
        <rect class="cls-6" x="18" y="148.6" width="42.4" height="27.9"/>
        <ellipse class="cls-6" cx="39.2" cy="148.6" rx="21.2" ry="2.6"/>
        <path class="cls-6" d="M18,176.5c0-1.4,9.5-2.6,21.2-2.6s21.2,1.2,21.2,2.6-9.5,2.6-21.2,2.6-21.2-1.2-21.2-2.6Z"/>
        <path class="cls-6" d="M53.7,142.4c-2.7-.6-26.2-.6-28.9,0-2.7.6-6.7,5.4-6.8,6.2h42.4c0-.8-4-5.6-6.8-6.2Z"/>
      </g>
      <path class="cls-11" d="M60.2,148.8c-.4.4-1,.5-1.5.7-1,.3-2,.5-3,.6-3.1.5-6.3.7-9.5.8-4,.2-8,.2-12,0-3.4-.1-6.7-.3-10.1-.7-1.1-.1-2.3-.3-3.4-.6-.7-.2-1.4-.3-2-.7,0,0-.2,0-.2-.2-.2-.1-.4,0-.2.2.4.4,1.1.6,1.7.7,1,.3,2.1.5,3.1.6,3.2.5,6.4.7,9.7.8,4.1.2,8.2.2,12.2,0,3.4-.1,6.7-.3,10.1-.7,1.1-.2,2.3-.3,3.4-.6.6-.2,1.4-.3,1.9-.7,0,0,.2-.1.2-.2.1-.1,0-.4-.2-.2h0Z"/>
      <path class="cls-11" d="M60.2,158.2c-.4.4-1,.5-1.5.7-1,.3-2,.5-3,.6-3.1.5-6.3.7-9.5.8-4,.2-8,.2-12,0-3.4-.1-6.7-.3-10.1-.7-1.1-.1-2.3-.3-3.4-.6-.7-.2-1.4-.3-2-.7,0,0-.2,0-.2-.2-.2-.1-.4,0-.2.2.4.4,1.1.6,1.7.7,1,.3,2.1.5,3.1.6,3.2.5,6.4.7,9.7.8,4.1.2,8.2.2,12.2,0,3.4-.1,6.7-.3,10.1-.7,1.1-.2,2.3-.3,3.4-.6.6-.2,1.4-.3,1.9-.7,0,0,.2-.1.2-.2.1-.1,0-.4-.2-.2h0Z"/>
      <path class="cls-11" d="M60.2,160.3c-.4.4-1,.5-1.5.7-1,.3-2,.5-3,.6-3.1.5-6.3.7-9.5.8-4,.2-8,.2-12,0-3.4-.1-6.7-.3-10.1-.7-1.1-.1-2.3-.3-3.4-.6-.7-.2-1.4-.3-2-.7,0,0-.2,0-.2-.2-.2-.1-.4,0-.2.2.4.4,1.1.6,1.7.7,1,.3,2.1.5,3.1.6,3.2.5,6.4.7,9.7.8,4.1.2,8.2.2,12.2,0,3.4-.1,6.7-.3,10.1-.7,1.1-.2,2.3-.3,3.4-.6.6-.2,1.4-.3,1.9-.7,0,0,.2-.1.2-.2.1-.1,0-.4-.2-.2h0Z"/>
      <g>
        <g>
          <path class="cls-6" d="M61.9,170.8c-.4-1.3-1.8-2.2-3.2-2l-3.4.4-.6-2.2c-.3-1.2-1.6-2-2.9-1.9l-4.7.8c-.4,0-1.1.4-1.4.6-.9.9-1.5,1.9-1.5,2.1l.6,1.9-2.3.3c-1.4.2-2.2,1.4-1.8,2.7l3.2,11,18.6-2.4,1-1.3c.6-.7.8-1.7.5-2.7l-2.2-7.4Z"/>
          <path class="cls-6" d="M60.7,171c-.4-1.3-1.8-2.2-3.2-2l-3.4.4-.6-2.2c-.3-1.2-1.6-2-2.9-1.9l-2.8.4c-.4,0-4.7,3.3-4.3,4.5l.2.6-2.3.3c-1.4.2-2.2,1.4-1.8,2.7l2.7,9.4c.3.9,1.2,1.6,2.1,1.4l17-2.2c1.3-.2,2.1-1.4,1.7-2.8l-2.5-8.6Z"/>
          <path class="cls-4" d="M66.5,241c-2.1-.2-4.2-.3-6.2-.5l-10.2-35-6-20.6h0c0-.1,0-.2,0-.3.1-.5.7-1.6,2.7-1.9,1-.1,2.6-.1,3,.8l.4,1.2,16.4,56.3Z"/>
          <path class="cls-4" d="M81,242c-2.1-.1-4.1-.3-6.2-.4l-17.1-58.7s.3-1.7,2.8-2c1-.1,2.6-.1,2.9.8h0s17.6,60.4,17.6,60.4Z"/>
          <path class="cls-11" d="M44,184.8c.2.7.4,1.4.6,2,.5,1.6.9,3.3,1.4,4.9.6,2,1.1,3.9,1.7,5.9.5,1.7,1,3.4,1.5,5.1.2.6.3,1.1.5,1.7,0,.3.1.5.2.8,0,0,0,0,0,0,0,.2.4.1.3,0-.2-.7-.4-1.4-.6-2-.5-1.6-.9-3.3-1.4-4.9-.6-2-1.1-3.9-1.7-5.9-.5-1.7-1-3.4-1.5-5.1-.2-.6-.3-1.1-.5-1.7,0-.3-.1-.5-.2-.8,0,0,0,0,0,0,0-.2-.4-.1-.3,0h0Z"/>
          <path class="cls-11" d="M43.3,184.2c.6-.8,1.2-1.5,1.8-2.3,0,0,0-.2,0-.2,0,0-.2,0-.2,0-.6.8-1.2,1.5-1.8,2.3,0,0,0,.2,0,.2,0,0,.2,0,.2,0h0Z"/>
          <path class="cls-11" d="M41.2,179.1c-.2-.7-.4-1.4-.6-2.1-.2-.8-.7-1.8-.3-2.7.1-.2.3-.4.4-.6.2-.2.4-.5.5-.7.4-.5.7-.9,1.1-1.4.1-.2-.1-.4-.2-.2-.3.4-.6.8-1,1.3-.3.4-.6.8-.9,1.2-.4.6-.5,1.3-.3,2,.2.8.5,1.6.7,2.5,0,.3.2.6.3.9,0,.2.4.1.3,0h0Z"/>
        </g>
        <g>
          <path class="cls-11" d="M46,166.7c.6-.6,1.6-.6,2.4-.8,1-.1,2.1-.3,3.1-.4.8,0,1.8-.2,2.5.5.6.5.7,1.3.9,2.1.1.4.2.8.4,1.2,0,0,0,.1.2.1,1.1-.1,2.2-.3,3.3-.4.5,0,1,0,1.5.2.2,0,.4-.2.2-.3-.5-.2-1-.3-1.6-.2-.2,0-.4,0-.6,0-.7,0-1.4.2-2.2.3-.2,0-.4,0-.6,0,0,0,.1,0,.2.1-.1-.4-.2-.7-.3-1.1-.2-.8-.4-1.6-.9-2.2-.6-.7-1.6-.8-2.5-.7-1.1.1-2.2.3-3.2.4-1,.1-2.1.2-2.9.9-.2.1,0,.4.2.2h0Z"/>
          <path class="cls-11" d="M64,179.7c-1.2.2-2.3.3-3.5.5-2.4.3-4.8.6-7.2.9-2,.3-4,.5-6,.8-.3,0-.7,0-1,.1-.4,0-.8,0-1.2-.3-.4-.3-.6-.7-.8-1.1-.3-1-.6-2.1-1-3.1-.3-1.1-.7-2.2-1-3.3-.2-.6-.3-1.1-.2-1.7,0-.3,0-.7.3-1,.3-.4.9-.4,1.3-.5.6,0,1.2-.2,1.7-.2.1,0,.2,0,.4,0,.2,0,.2-.3,0-.3-.9.1-1.7.2-2.6.3-.4,0-.7.2-1,.4-.2.2-.4.6-.4.9-.2,1.1.2,2.2.6,3.3.3,1.1.7,2.2,1,3.3.2.5.3,1,.5,1.6.1.5.3.9.6,1.3.4.6,1.1.9,1.8.8.1,0,.3,0,.4,0,1.8-.2,3.6-.5,5.3-.7,2.5-.3,5-.6,7.5-1,1.5-.2,2.9-.4,4.4-.6,0,0,0,0,0,0,.2,0,.2-.3,0-.3h0Z"/>
        </g>
        <path class="cls-11" d="M55.6,169.2v-3.5c0-.3,0-.6-.1-.9-.1-.3-.4-.5-.7-.7-.3-.2-.7-.1-1.1,0-.9,0-1.7.2-2.6.3-1,0-1.9.1-2.9.2-.8,0-1.7,0-2.2.6-.2.3-.3.7-.3,1.1v4.3c0,.2.3.2.3,0v-3.6c0-.4,0-.7,0-1.1,0-.4.2-.7.5-.9.4-.2.8-.1,1.2-.2.9,0,1.9-.1,2.8-.2.8,0,1.7-.1,2.5-.2.7,0,1.5-.3,2,.4.2.3.2.6.2.9v3.6c0,.2.3.2.3,0h0Z"/>
      </g>
      <g>
        <g>
          <path class="cls-6" d="M16.4,170.8c.4-1.3,1.8-2.2,3.2-2l3.4.4.6-2.2c.3-1.2,1.6-2,2.9-1.9l4.7.8c.4,0,1.1.4,1.4.6.9.9,1.5,1.9,1.5,2.1l-.6,1.9,2.3.3c1.4.2,2.2,1.4,1.8,2.7l-3.2,11-18.6-2.4-1-1.3c-.6-.7-.8-1.7-.5-2.7l2.2-7.4Z"/>
          <path class="cls-6" d="M17.7,171c.4-1.3,1.8-2.2,3.2-2l3.4.4.6-2.2c.3-1.2,1.6-2,2.9-1.9l2.8.4c.4,0,4.7,3.3,4.3,4.5l-.2.6,2.3.3c1.4.2,2.2,1.4,1.8,2.7l-2.7,9.4c-.3.9-1.2,1.6-2.1,1.4l-17-2.2c-1.3-.2-2.1-1.4-1.7-2.8l2.5-8.6Z"/>
          <path class="cls-4" d="M34.3,184.7l-5.9,20.2-9.1,31.3c-2-.3-3.9-.5-5.8-.8l14.8-51,.2-.8c.3-1,2-1,3-.8,2.5.3,2.7,2.1,2.7,2.1Z"/>
          <path class="cls-4" d="M20.7,182.9l-14.9,51.2c-2-.3-4-.7-5.8-1l15-51.4h0c.3-.9,1.9-.9,2.9-.8,2.5.3,2.8,2,2.8,2Z"/>
          <path class="cls-11" d="M34.1,184.7c-.2.7-.4,1.3-.6,2-.5,1.6-.9,3.2-1.4,4.8-.6,1.9-1.1,3.9-1.7,5.8-.5,1.7-1,3.3-1.4,5-.2.6-.3,1.1-.5,1.7,0,.3-.2.5-.2.8,0,0,0,0,0,0,0,.2.3.3.3,0,.2-.7.4-1.3.6-2,.5-1.6.9-3.2,1.4-4.8.6-1.9,1.1-3.9,1.7-5.8.5-1.7,1-3.3,1.4-5,.2-.6.3-1.1.5-1.7,0-.3.2-.5.2-.8,0,0,0,0,0,0,0-.2-.3-.3-.3,0h0Z"/>
          <path class="cls-11" d="M35.3,184c-.6-.8-1.2-1.5-1.8-2.3,0,0-.2,0-.2,0,0,0,0,.2,0,.2.6.8,1.2,1.5,1.8,2.3,0,0,.2,0,.2,0,0,0,0-.2,0-.2h0Z"/>
          <path class="cls-11" d="M37.5,179.2c.2-.7.4-1.5.7-2.2.1-.4.2-.7.3-1.1.2-.6.2-1.2-.1-1.8-.1-.2-.2-.4-.4-.6-.2-.2-.4-.5-.5-.7-.4-.5-.7-1-1.1-1.4-.1-.2-.4,0-.2.2.3.4.6.8.9,1.2.3.4.6.8.9,1.2.3.5.4,1.1.2,1.7-.2.8-.5,1.6-.7,2.5,0,.3-.2.6-.3.9,0,.2.3.3.3,0h0Z"/>
        </g>
        <g>
          <path class="cls-11" d="M32.6,166.5c-.7-.6-1.6-.7-2.5-.8-1.1-.2-2.2-.3-3.3-.4-.9-.1-1.9-.1-2.6.5-.6.5-.8,1.4-1,2.1-.1.5-.3.9-.4,1.4,0,0,.1,0,.2-.1-1.1-.1-2.2-.3-3.3-.4-.6,0-1.1,0-1.6.2-.2,0,0,.4.2.3.5-.2,1-.3,1.5-.2.2,0,.4,0,.7,0,.7,0,1.4.2,2.1.3.2,0,.4,0,.5,0,0,0,.1,0,.2-.1,0-.3.2-.7.3-1,.2-.7.3-1.5.8-2,.6-.7,1.5-.8,2.4-.7,1,0,2,.2,3,.4.5,0,1,.1,1.6.2.5,0,.9.3,1.3.6.2.1.4,0,.2-.2h0Z"/>
          <path class="cls-11" d="M14.4,180.1c1.2.2,2.4.3,3.6.5,2.5.3,4.9.6,7.4,1,2,.3,3.9.5,5.9.8.5,0,1,.2,1.5,0,.4-.1.8-.4,1.1-.8.3-.4.4-.9.6-1.4.3-1.1.6-2.1,1-3.2.2-.6.4-1.2.5-1.7.2-.6.4-1.2.5-1.8.1-.7.2-1.8-.4-2.4-.4-.4-.9-.4-1.4-.5-.6,0-1.2-.2-1.7-.2-.1,0-.3,0-.4,0-.2,0-.2.3,0,.3.9.1,1.7.2,2.6.3.3,0,.7.2.9.4.2.3.3.6.3,1,0,.6,0,1.2-.3,1.8-.2.6-.4,1.2-.5,1.7-.3,1-.6,2.1-1,3.1-.2.5-.3,1-.5,1.6-.1.5-.4.8-.8,1.1-.4.2-.8.3-1.2.3-.2,0-.3,0-.5,0-1.8-.2-3.7-.5-5.5-.7-2.4-.3-4.9-.6-7.3-.9-.9-.1-1.9-.2-2.8-.4-.5,0-.9-.1-1.4-.2,0,0,0,0,0,0-.2,0-.2.3,0,.3h0Z"/>
        </g>
        <path class="cls-11" d="M23.1,169.2v-3.3c0-.2,0-.5,0-.7,0-.3.2-.7.5-.8.3-.2.7-.1,1,0,.8,0,1.6.2,2.4.2.9,0,1.8.1,2.7.2.5,0,1,0,1.4,0,.4,0,.7.2.9.5.2.3.2.8.2,1.2v4c0,.2.3.2.3,0v-3.8c0-.4,0-.8,0-1.2,0-.3-.3-.6-.6-.8-.3-.2-.7-.2-1.1-.2-1,0-2-.1-3-.2-.9,0-1.8-.1-2.7-.2-.7,0-1.5-.3-2.1.3-.3.3-.4.7-.4,1.1v3.7c0,.2.3.2.3,0h0Z"/>
      </g>
    </g>
    <path class="cls-3" d="M16,135l1.4,6.5c.4,2,2.2,3.4,4.2,3.4h34.7c2,0,3.8-1.4,4.2-3.4l1.4-6.5c.2-.8-.5-1.6-1.3-1.6H17.4c-.9,0-1.5.8-1.3,1.6Z"/>
    <rect class="cls-6" x="7.3" y="65.6" width="21.7" height="74.4" rx="10.9" ry="10.9"/>
    <rect class="cls-3" x="10.4" y="65.6" width="21.7" height="74.4" rx="10.9" ry="10.9"/>
    <path class="cls-11" d="M15.2,108.4v14.9c0,.2.3.2.3,0v-14.9c0-.2-.3-.2-.3,0h0Z"/>
    <path class="cls-3" d="M13.6,67.2c0,.3.2.6.5.6,4.2.6,8.5.8,12.7.6,2.1,0,4.2-.2,6.3-.5.4,0,1,0,1.3-.4.1-.1.2-.3.2-.5.5.6.5-.3.5-.6,0-.8-.2-1.7-.3-2.5-.4-3.5-.8-6.7-1.2-10.4-.2-1.8-.7-4.4-2.8-4.7-1.8-.3-4.4-.1-6.2,0-1.6.2-2.3.3-3.2,1.6-.8,1.2-7.1,13.6-7.8,16.7Z"/>
    <path class="cls-11" d="M30.6,52.3c-.2,0-.4,0-.6.2-.2.2-.3.4-.4.6-.2.6-.4,1.1-.6,1.7-.4,1.2-.8,2.3-1.2,3.5-.4,1.1-.8,2.3-1.2,3.4-.2.5-.4,1-.4,1.6,0,.4.2.8.6,1,.4.2.8.2,1.2.2.5,0,1.1,0,1.6,0,.9-.2,1.7-.7,2-1.6.4-1,.4-2,.5-3,0-1.2.2-2.5.3-3.7,0-.7,0-1.4.1-2,0-.5.1-1.1-.3-1.5-.5-.4-1.2-.3-1.8-.3s-.2.3,0,.3h.6c.2,0,.5,0,.7,0,.2,0,.3.2.4.4,0,.2,0,.5,0,.7,0,.6,0,1.1-.1,1.7,0,1.1-.2,2.2-.2,3.3,0,1,0,2.1-.3,3-.2.8-.5,1.6-1.3,2-.4.2-.9.3-1.4.3-.4,0-.9,0-1.3,0-.4,0-.9-.1-1.1-.5-.2-.4,0-.9.1-1.4.4-1,.7-2.1,1.1-3.1.4-1.2.8-2.3,1.2-3.5.2-.6.4-1.2.6-1.8.1-.3.2-.6.3-.8.1-.3.3-.5.6-.5.2,0,.2-.3,0-.3Z"/>
    <rect class="cls-3" x="28" y="48.7" width="23.2" height="3.6"/>
    <path class="cls-11" d="M29.6,48.7c-2.1.4-3.2,2.6-3.8,4.4-.5,1.4-.9,2.8-1.3,4.2-.4,1.4-.9,2.8-1.3,4.2-.3.8-.5,1.6-.8,2.4-.2.8-.5,1.5-.7,2.3,0,.2.3.3.3,0,.2-.7.4-1.3.6-2,.2-.7.4-1.4.7-2,.4-1.4.9-2.7,1.3-4.1.4-1.4.9-2.8,1.3-4.2.3-1,.7-2,1.2-2.9.6-1,1.4-1.8,2.6-2,.2,0,.1-.3,0-.3h0Z"/>
    <path class="cls-11" d="M29.5,48.9c0,.4,0,.8-.1,1.2,0,.4,0,.8,0,1.2,0,.5.1,1,.6,1.2.5.3,1.1.2,1.6.2.6,0,1.3,0,1.9,0,.2,0,.2-.3,0-.3-.5,0-1,0-1.5,0-.3,0-.5,0-.8,0-.2,0-.5,0-.7,0-1-.2-.7-1.5-.6-2.2,0-.4,0-.8.1-1.3,0-.2-.3-.2-.3,0h0Z"/>
    <path class="cls-11" d="M14.2,65.8h7.7c.2,0,.2-.3,0-.3h-7.7c-.2,0-.2.3,0,.3h0Z"/>
    <g>
      <g>
        <path class="cls-11" d="M37.4,61c-1.9,0-3.5.4-3.5,1.1,0,.7,1.5,1.3,3.4,1.4,1.9,0,3.5-.4,3.5-1.1,0-.7-1.5-1.3-3.4-1.4Z"/>
        <polygon class="cls-11" points="40.6 64.1 40.8 62.5 33.9 62.1 33.7 63.8 40.6 64.1"/>
        <path class="cls-11" d="M37.2,62.7c-1.9,0-3.5.4-3.5,1.1,0,.7,1.5,1.3,3.4,1.4,1.9,0,3.5-.4,3.5-1.1,0-.7-1.5-1.3-3.4-1.4Z"/>
      </g>
      <path class="cls-6" d="M45.5,64.2l-3.1-.6c-1-.2-2-.3-3.1-.3h-20c-2.9,0-4.3,2.8-4.5,5.3l-.3,3.8h0s0,0,0,0h0s0,0,0,0l30.2,1.9.7-10Z"/>
      <path class="cls-11" d="M36.3,73c0-1.1.1-2.1.2-3.2,0-.4,0-.8,0-1.2.1-1,.5-2,1.1-2.8.7-.9,1.7-1.6,2.7-2,.2,0,.1-.4,0-.3-2,.7-3.5,2.3-4,4.4-.1.5-.2,1.1-.2,1.6,0,.7,0,1.4-.1,2.1,0,.5,0,1,0,1.5,0,.2.3.2.3,0h0Z"/>
      <path class="cls-3" d="M44.3,101.1l-10.1-.8-21.6-.7,2-27.3,19.9.7c1.1,0,2.2.1,3.3.3l6.9.9-.5,27Z"/>
      <path class="cls-6" d="M44.3,101.1l-10.1-.8-21.6-.7-.3,4.1c-.2,3,2,5.5,5,5.7l17.7.9c1.5,0,3.1.1,4.6.1h4l.7-9.3Z"/>
      <path class="cls-11" d="M34,100.5c0,1.1-.2,2.1-.2,3.2,0,.5,0,.9,0,1.4,0,1,.3,2,.8,2.9.6,1,1.5,1.7,2.5,2.2.2,0,.4-.2.2-.3-1.8-.8-3.1-2.6-3.2-4.6,0-.5,0-.9,0-1.4,0-.7,0-1.3.1-2,0-.5,0-.9.1-1.4,0-.2-.3-.2-.3,0h0Z"/>
      <path class="cls-11" d="M14.5,72.5c-.3,3.5-.5,7-.8,10.5-.3,3.5-.5,7.1-.8,10.6-.1,2-.3,3.9-.4,5.9,0,.2.3.2.3,0,.3-3.5.5-7,.8-10.5.3-3.5.5-7.1.8-10.6.1-2,.3-3.9.4-5.9,0-.2-.3-.2-.3,0h0Z"/>
      <path class="cls-11" d="M36,73.2c-.3,3.5-.5,7-.8,10.5-.3,3.5-.5,7.1-.8,10.6-.1,2-.3,3.9-.4,5.9,0,.2.3.2.3,0,.3-3.5.5-7,.8-10.5.3-3.5.5-7.1.8-10.6.1-2,.3-3.9.4-5.9,0-.2-.3-.2-.3,0h0Z"/>
      <ellipse class="cls-11" cx="14.3" cy="85.1" rx="11.4" ry="9.7" transform="translate(-71.3 95.3) rotate(-87.3)"/>
      <path class="cls-11" d="M16.7,96.4c0,0-.2,0-.3,0-2.3,0-4.4-1.1-6.1-2.9-2-2.2-3.2-5.3-3-8.6.2-6.2,4.7-11,10-10.8,2.3,0,4.4,1.1,6.1,2.9,2,2.2,3.2,5.3,3,8.6-.2,6.1-4.5,10.9-9.7,10.9ZM16.9,74.3c-5,0-9.1,4.7-9.4,10.5-.1,3.2,1,6.2,2.9,8.4,1.6,1.7,3.7,2.7,5.9,2.8,0,0,.2,0,.3,0,5,0,9.1-4.7,9.4-10.5h.2s-.2,0-.2,0c.1-3.2-1-6.2-2.9-8.4-1.6-1.7-3.7-2.7-5.9-2.8,0,0-.2,0-.3,0Z"/>
      <path class="cls-11" d="M14.5,74c1.2,0,2.5.2,3.7.4,1.6.2,3.1.4,4.6.6,1.6.2,3.1.6,4.5,1.4,1.6.8,2.9,2.1,3.9,3.6,1,1.7,1.4,3.7,1.4,5.7,0,2.1-.6,4.2-1.7,6-1,1.6-2.3,3-4,3.9-.8.4-1.7.7-2.6.9-.6,0-1.3,0-1.9,0-1.3,0-2.7,0-4-.1-1.4,0-2.7,0-4.1-.1-.1,0-.3,0-.4,0-.2,0-.2.3,0,.3,1.2,0,2.3,0,3.5.1,1.5,0,3,.1,4.5.2.5,0,1,0,1.4,0,.9,0,1.9-.2,2.7-.5,1.8-.7,3.3-1.9,4.5-3.4,1.3-1.7,2.1-3.6,2.4-5.7.3-2.1.2-4.2-.6-6.2-.7-1.7-1.9-3.2-3.3-4.2-1.5-1.1-3.3-1.8-5.2-2.1-1.3-.2-2.7-.4-4-.5-1.5-.2-3.1-.4-4.6-.5-.2,0-.4,0-.6,0-.2,0-.2.3,0,.3h0Z"/>
      <path class="cls-12" d="M21.2,85.3c-.1,3.1-1.9,6.4-4.9,7.6-1.4.5-2.9.5-4.3,0-1.4-.5-2.6-1.6-3.4-2.8-1.8-2.8-1.8-6.6-.2-9.5.7-1.3,1.9-2.5,3.2-3.1,1.3-.7,2.9-.8,4.3-.4,3.1.9,5,4,5.3,7,0,.4,0,.8,0,1.3,0,.2.3.2.3,0,.1-3.3-1.4-6.8-4.5-8.2-1.4-.6-3-.8-4.5-.3-1.5.4-2.8,1.4-3.8,2.7-2.1,2.8-2.4,6.7-1,9.8.7,1.4,1.8,2.7,3.1,3.5,1.3.8,2.9,1,4.4.7,3.3-.7,5.5-3.7,6-6.9,0-.4.1-.9.1-1.3,0-.2-.3-.2-.3,0Z"/>
    </g>
    <path class="cls-3" d="M60.3,86.6c0-9.5,0-17.2-.2-17.7-.2-1-.5-2.1-1.3-2.8-1.2-1.2-3.3-1-4.8-1-.7,0-1.3,0-2,0-.7,0-1.5,0-2.2,0-.9,0-1.8,0-2.6,0-.8,0-1.6.2-2.3.7-.1,0-.2.2-.3.3-.6.6-1,1.4-1.2,2.2-.2.7-.2,4-.2,4-3.7,2.7-6.3,8.1-6.3,14.3s2.5,11.6,6.3,14.3c0,1.3,0,2.6,0,3.9,0,8.9,0,17.8.2,26.7,0,2.4,0,6.3,2.2,7.7,1.2.7,2.6.8,3.9.8.7,0,3.5,0,4.2,0,1.4,0,2.9,0,4.1-.8,1.4-.8,1.7-2.3,1.8-3.8.3-1.3.3-2.6.4-3.9.3-8.9.3-17.8.2-26.7,0-6,0-12.4,0-18.2Z"/>
    <path class="cls-11" d="M44.1,137.4h7.1c.2,0,.2-.3,0-.3h-7.1c-.2,0-.2.3,0,.3h0Z"/>
    <path class="cls-3" d="M58.4,50.5c-.9-1.3-1.8-1.4-3.4-1.6-1.8-.2-4.4-.3-6.2,0-2.1.3-2.6,2.9-2.8,4.7-.4,3.7-.8,6.9-1.2,10.4,0,.8-.3,1.7-.3,2.5,0,.3,0,1.2.5.6,0,.2,0,.3.2.5.3.4.9.4,1.3.4,2.1.3,4.2.4,6.3.5,4.2.1,8.5,0,12.7-.6.3,0,.5-.3.5-.6-.7-3-6.7-15.5-7.5-16.7Z"/>
    <path class="cls-11" d="M53.5,48.8c-2,.4-2.4,2.7-2.4,4.3,0,1.4,0,2.8,0,4.1,0,1.4,0,2.8,0,4.2,0,.8,0,1.6,0,2.4,0,.8,0,1.6,0,2.3,0,.2.3.2.3,0,0-.7,0-1.3,0-2,0-.7,0-1.4,0-2,0-1.4,0-2.7,0-4.1,0-1.4,0-2.9,0-4.3,0-.9,0-1.9.3-2.8.3-.9.9-1.8,1.9-2,.2,0,.1-.3,0-.3h0Z"/>
    <path class="cls-11" d="M48.4,48.7c-1.6.3-2.2,2-2.4,3.5,0,.2.3.2.3,0,.2-1.3.7-2.9,2.2-3.2.2,0,.1-.3,0-.3h0Z"/>
    <path class="cls-11" d="M44.7,66.1h6.5c.2,0,.2-.3,0-.3h-6.5c-.2,0-.2.3,0,.3h0Z"/>
    <path class="cls-6" d="M75.3,68.9c-.2-1-.5-2.1-1.3-2.8-1.2-1.2-3.3-1-4.8-1-.7,0-12,0-12.7,0-.9,0-1.8,0-2.6,0-.8,0-1.6.2-2.3.7-.1,0-.2.2-.3.3-1.6,1.6-1.3,4-1.4,6,0,1.8,0,3.5,0,5.3,0,5,0,10.1,0,15.1,0,4.1,0,8.2,0,12.3,0,8.5,0,17,.2,25.5,0,1.6,0,3.2.3,4.8.2,1.5.6,3.1,2,4,1.5.9,12.4.8,14.2.7,3,0,6.9-.1,7.9-2.9.7-1.9.7-3.9.7-5.9.3-8.9.3-17.2.2-26.1,0-15.9,0-35.1-.1-35.9Z"/>
    <ellipse class="cls-6" cx="55.3" cy="86.6" rx="11.7" ry="16.1"/>
    <g>
      <ellipse class="cls-11" cx="64.9" cy="109.2" rx="3.1" ry="4.2"/>
      <rect class="cls-11" x="64.9" y="105" width="2.2" height="8.5"/>
      <ellipse class="cls-11" cx="67.1" cy="109.2" rx="3.1" ry="4.2"/>
      <path class="cls-12" d="M65.9,113c-.9-.6-1.5-1.7-1.7-2.7-.2-1.2,0-2.5.5-3.6.3-.5.7-1,1.2-1.2.2-.1,0-.4-.2-.3-1,.6-1.6,1.7-1.9,2.9-.3,1.3-.1,2.7.5,3.9.3.5.7,1,1.3,1.4.2.1.3-.2.2-.3h0Z"/>
    </g>
    <g>
      <ellipse class="cls-11" cx="64.4" cy="87" rx="4.3" ry="6"/>
      <rect class="cls-11" x="64.4" y="81" width="3.1" height="11.9"/>
      <ellipse class="cls-11" cx="67.5" cy="87" rx="4.3" ry="6"/>
      <path class="cls-12" d="M65.9,92.3c-1.4-.8-2.1-2.4-2.4-3.9-.3-1.7,0-3.6.8-5.1.4-.7,1-1.3,1.7-1.7.2-.1,0-.4-.2-.3-1.4.8-2.3,2.4-2.6,4-.4,1.8-.2,3.8.7,5.4.4.8,1,1.5,1.8,1.9.2.1.3-.2.2-.3h0Z"/>
    </g>
    <path class="cls-11" d="M52.8,100.9c-1.6-1.1-2.8-2.6-3.8-4.2-1.1-1.9-1.8-3.9-2.2-6.1-.4-2.3-.5-4.7-.2-7,.3-2.2,1-4.3,2-6.3.9-1.7,2.1-3.3,3.6-4.6.2-.1.4-.3.5-.4.2-.1,0-.4-.2-.3-1.6,1.2-2.9,2.7-3.9,4.4-1.1,1.9-1.9,4.1-2.3,6.3-.4,2.4-.5,4.8-.1,7.2.3,2.2,1,4.4,2,6.3.9,1.7,2.2,3.4,3.7,4.6.2.1.4.3.5.4.2.1.3-.2.2-.3h0Z"/>
    <path class="cls-11" d="M43.4,100.9c-.6-.4-1.1-.9-1.6-1.4-.6-.6-1.2-1.3-1.7-2.1-1.1-1.6-1.8-3.4-2.3-5.3-1.1-4.1-.9-8.6.5-12.6.7-2,1.8-3.9,3.3-5.5.1-.2,0-.4-.2-.2-2.8,3-4.2,7.1-4.5,11.1-.3,4.2.5,8.6,2.7,12.2.5.9,1.1,1.7,1.8,2.4.6.6,1.2,1.2,1.9,1.7.2.1.3-.2.2-.3h0Z"/>
    <path class="cls-11" d="M43.3,101.2h9.2c.2,0,.2-.3,0-.3h-9.2c-.2,0-.2.3,0,.3h0Z"/>
    <path class="cls-11" d="M43.4,72.3h9.2c.2,0,.2-.3,0-.3h-9.2c-.2,0-.2.3,0,.3h0Z"/>
    <path class="cls-11" d="M52.5,101c0,2.7,0,5.3,0,8,0,2.7,0,5.4,0,8.1,0,2.7,0,5.4,0,8.1,0,1.3,0,2.7,0,4,0,1.3,0,2.7.1,4,0,1.1.2,2.2.5,3.3.2.9.6,1.8,1.4,2.4.2.2.4.3.6.4.2.1.3-.2.2-.3-.9-.5-1.4-1.3-1.7-2.2-.3-1-.5-2.1-.6-3.2-.1-1.3-.1-2.6-.2-3.9,0-1.3,0-2.6,0-3.9-.1-5.3-.1-10.6-.1-15.9,0-2.9,0-5.9,0-8.8,0-.2-.3-.2-.3,0h0Z"/>
    <path class="cls-11" d="M54.6,65.1c-1.1.7-1.7,2-1.9,3.2-.2,1.3-.1,2.6-.1,3.9,0,.2.3.2.3,0,0-1.2,0-2.5.1-3.7.2-1.2.7-2.5,1.8-3.1.2-.1,0-.4-.2-.3h0Z"/>
    <path class="cls-11" d="M63.8,101.1c1.6-1.1,2.9-2.6,3.9-4.3,1.1-1.9,1.9-4,2.3-6.1.5-2.4.5-4.8.2-7.2-.3-2.2-1-4.4-2.1-6.4-.9-1.8-2.2-3.4-3.7-4.6-.2-.1-.4-.3-.5-.4-.2-.1-.3.2-.2.3,1.6,1.1,2.8,2.6,3.8,4.3,1.1,1.9,1.8,3.9,2.3,6.1.4,2.3.5,4.7.1,7-.3,2.1-1,4.3-2,6.2-.9,1.7-2.1,3.3-3.6,4.5-.2.1-.4.3-.5.4-.2.1,0,.4.2.3h0Z"/>
    <path class="cls-11" d="M63.5,101c0,5.3,0,10.6,0,15.8,0,2.6,0,5.3,0,7.9,0,2.6,0,5.3-.2,7.9,0,1.3-.2,2.5-.5,3.8-.3,1.1-.8,2-1.8,2.6-.2.1,0,.4.2.3,1.8-1,2.2-3.3,2.4-5.2.1-1.3.2-2.6.2-3.9,0-1.3,0-2.7,0-4,0-2.7,0-5.4.1-8.1,0-2.7,0-5.4,0-8.1,0-2.7,0-5.4,0-8,0-.3,0-.7,0-1,0-.2-.3-.2-.3,0h0Z"/>
    <path class="cls-11" d="M61.6,65.3c1.1.7,1.6,2,1.8,3.2.2,1.2,0,2.5.1,3.7,0,.2.3.2.3,0,0-1,0-2.1,0-3.1,0-1-.2-2-.8-2.8-.3-.5-.7-1-1.3-1.3-.2-.1-.3.2-.2.3h0Z"/>
    <path class="cls-11" d="M56.2,52.4c.6,0,.7.7,1,1.1.2.5.5,1,.7,1.5.5,1,1,2.1,1.5,3.1.5,1,1,2,1.5,3.1.2.5.5,1,.7,1.5.1.4.2,1-.3,1.2-.4.2-.8.1-1.2.2-.5,0-1,0-1.5,0-.9-.2-1.6-.8-2-1.6-.4-.9-.6-1.9-.8-2.8-.2-1.1-.4-2.2-.7-3.3-.1-.6-.2-1.2-.4-1.9,0-.3-.1-.6-.2-.9,0-.2,0-.5,0-.7.2-.3.5-.3.8-.3h.8c.2,0,.2-.3,0-.3h-.7c-.3,0-.6,0-.8.2-.4.2-.5.7-.4,1.1.1.6.2,1.2.4,1.8.2,1.2.5,2.4.7,3.6.2,1.1.4,2.2.8,3.3.4.9.9,1.6,1.8,2,.5.2,1,.2,1.5.2.5,0,1,0,1.5,0,.4,0,.8-.2.9-.6.2-.5,0-1-.2-1.4-.5-1.1-1.1-2.3-1.6-3.4-.6-1.3-1.2-2.5-1.8-3.8-.3-.6-.6-1.3-.9-1.9-.1-.3-.2-.6-.5-.8-.2-.2-.4-.3-.7-.3-.2,0-.2.3,0,.3Z"/>
    <path class="cls-11" d="M13.7,122.6l-5.3,13.3c-.8,2,.7,4.1,2.8,4.1h32.9c1.6,0,3-1.3,3-3v-13.3c0-1.6-1.3-3-3-3h-27.6c-1.2,0-2.3.7-2.8,1.9Z"/>
    <path class="cls-12" d="M41.8,120.8c-.6.4-1,1-1.3,1.6-.1.3-.3.7-.4,1-.5,1.3-1,2.6-1.6,3.9-.6,1.6-1.3,3.2-1.9,4.7-.5,1.1-.9,2.3-1.4,3.4,0,.2-.1.4-.2.5-.5,1.2-.2,2.5.6,3.4.2.2.4.4.7.6.2.1.3-.2.2-.3-1.1-.7-1.6-2-1.3-3.3,0-.3.2-.5.3-.7.4-1,.8-2.1,1.3-3.1.6-1.5,1.2-3.1,1.8-4.6.5-1.3,1.1-2.7,1.6-4,.2-.4.3-.8.5-1.2.1-.3.3-.7.5-1,.2-.3.4-.5.7-.7.2-.1,0-.4-.2-.3h0Z"/>
    <path class="cls-12" d="M25.1,133.1h-11.5c-.7,0-1.2-.7-.9-1.3l3-7.4c.3-.6.9-1.1,1.6-1.1h11.5c.7,0,1.2.7.9,1.3l-3,7.4c-.3.6-.9,1.1-1.6,1.1Z"/>
    <path class="cls-6" d="M13.6,135.6h-1.7c-.3,0-.4-.3-.3-.5l.2-.5c0-.2.2-.3.4-.3h1.7c.3,0,.4.3.3.5l-.2.5c0,.2-.2.3-.4.3Z"/>
    <path class="cls-6" d="M17.4,135.6h-1.7c-.3,0-.4-.3-.3-.5l.2-.5c0-.2.2-.3.4-.3h1.7c.3,0,.4.3.3.5l-.2.5c0,.2-.2.3-.4.3Z"/>
    <path class="cls-6" d="M21.2,135.6h-1.7c-.3,0-.4-.3-.3-.5l.2-.5c0-.2.2-.3.4-.3h1.7c.3,0,.4.3.3.5l-.2.5c0,.2-.2.3-.4.3Z"/>
    <path class="cls-6" d="M25,135.6h-1.7c-.3,0-.4-.3-.3-.5l.2-.5c0-.2.2-.3.4-.3h1.7c.3,0,.4.3.3.5l-.2.5c0,.2-.2.3-.4.3Z"/>
    <path class="cls-12" d="M30.9,130.3h-1.7c-.3,0-.4-.3-.3-.5l.2-.5c0-.2.2-.3.4-.3h1.7c.3,0,.4.3.3.5l-.2.5c0,.2-.2.3-.4.3Z"/>
    <path class="cls-12" d="M29.8,132.9h-1.7c-.3,0-.4-.3-.3-.5l.2-.5c0-.2.2-.3.4-.3h1.7c.3,0,.4.3.3.5l-.2.5c0,.2-.2.3-.4.3Z"/>
    <path class="cls-12" d="M28.8,135.6h-1.7c-.3,0-.4-.3-.3-.5l.2-.5c0-.2.2-.3.4-.3h1.7c.3,0,.4.3.3.5l-.2.5c0,.2-.2.3-.4.3Z"/>
    <path class="cls-12" d="M33,125h-1.7c-.3,0-.4-.3-.3-.5l.2-.5c0-.2.2-.3.4-.3h1.7c.3,0,.4.3.3.5l-.2.5c0,.2-.2.3-.4.3Z"/>
    <path class="cls-12" d="M32,127.7h-1.7c-.3,0-.4-.3-.3-.5l.2-.5c0-.2.2-.3.4-.3h1.7c.3,0,.4.3.3.5l-.2.5c0,.2-.2.3-.4.3Z"/>
    <path class="cls-12" d="M33.4,132.9h-1.7c-.3,0-.4-.3-.3-.5l.2-.5c0-.2.2-.3.4-.3h1.7c.3,0,.4.3.3.5l-.2.5c0,.2-.2.3-.4.3Z"/>
    <path class="cls-9" d="M32.3,135.6h-1.7c-.3,0-.4-.3-.3-.5l.2-.5c0-.2.2-.3.4-.3h1.7c.3,0,.4.3.3.5l-.2.5c0,.2-.2.3-.4.3Z"/>
    <path class="cls-4" d="M36.9,124.3c-.1.5-.6.9-1.2.9s-.9-.4-.7-.9c.1-.5.6-.9,1.2-.9s.9.4.7.9Z"/>
    <path class="cls-4" d="M35.8,126.9c-.1.5-.6.9-1.2.9s-.9-.4-.7-.9c.1-.5.6-.9,1.2-.9s.9.4.7.9Z"/>
    <path class="cls-4" d="M34.7,130c-.1.5-.6.9-1.2.9s-.9-.4-.7-.9c.1-.5.6-.9,1.2-.9s.9.4.7.9Z"/>
    <path class="cls-12" d="M18.6,85.2c-.1,2.8-2.2,5.1-4.6,5-2.4,0-4.3-2.4-4.2-5.3.1-2.8,2.2-5.1,4.6-5,2.4,0,4.3,2.4,4.2,5.3Z"/>
  </g>
  <g>
    <path class="cls-11" d="M227.2,230.8c-36.2,3.2-67.7,2.1-94.5-.4.8-17.7,7.3-54.3,15.8-70.2,10.3-19.2,23-18.6,44.4-18.8,2.4,0,4.7,0,7.1.3,2.6.2,5.2.5,7.7,1.3,2.4.8,4.5,2,6.3,3.8,1.7,1.7,2.9,3.7,3.9,5.8,2.2,4.8-5.9,11.1-4.1,16.1,10.3,29.5,13.4,62.1,13.4,62.1Z"/>
    <path class="cls-12" d="M204.2,163.6c-.5,2.9-.5,5.9-.3,8.8.3,2.9.9,5.8,1.9,8.5.9,2.6,2.2,5.1,3.7,7.4,1.5,2.2,3.2,4.2,5.1,5.9,1.9,1.8,4,3.3,6.3,4.5.3.2.6.3.8.4.2.1.4-.2.2-.3-2.3-1.1-4.4-2.6-6.4-4.3-2-1.7-3.7-3.6-5.2-5.7-1.6-2.2-2.9-4.6-3.9-7.1-1.1-2.7-1.8-5.5-2.2-8.4-.4-2.9-.4-5.8,0-8.6,0-.4,0-.7.2-1.1,0-.2-.3-.3-.4,0h0Z"/>
    <path class="cls-12" d="M166.7,162.6c-.3,5.3-.7,10.6-1,15.9,0,1.3-.2,2.7-.2,4,0,1.2-.2,2.4-.2,3.6,0,2.2.2,4.6,1.5,6.5,1.1,1.7,3,2.7,5,2.8.2,0,.2-.4,0-.4-1.8,0-3.5-.9-4.6-2.3-1.3-1.8-1.6-4.1-1.6-6.2,0-1.2,0-2.4.1-3.6,0-1.3.2-2.5.2-3.8.2-2.6.3-5.2.5-7.7.2-2.9.4-5.8.5-8.7,0-.2-.4-.2-.4,0h0Z"/>
    <path class="cls-12" d="M173.4,160.2c-.7,9.4-1.2,18.9-1.5,28.3-.3,9.3-.3,18.6-.2,28,0,5.3.2,10.7.5,16,0,.2.4.2.4,0-.4-9.5-.6-18.9-.5-28.4,0-9.3.3-18.6.8-28,.3-5.3.6-10.6,1-16,0-.2-.3-.2-.4,0h0Z"/>
    <path class="cls-11" d="M144.8,156.6v12.7s35.1,11.3,67.7,0v-12.7h-67.7Z"/>
    <path class="cls-12" d="M144.8,168.8c3.7,1.3,7.5,2.3,11.3,3.1,3.8.8,7.7,1.5,11.6,1.9,4,.4,8.1.7,12.1.7,4.1,0,8.3,0,12.4-.4,4.2-.3,8.3-.9,12.4-1.5.5,0,1.1-.2,1.6-.3.2,0,.1-.4,0-.4-4.1.7-8.3,1.3-12.5,1.7-4.1.4-8.2.6-12.3.6-4,0-8-.2-12-.6-3.9-.4-7.9-1-11.7-1.8-3.8-.8-7.5-1.8-11.2-2.9-.5-.1-.9-.3-1.4-.5-.2,0-.3.3,0,.4h0Z"/>
    <path class="cls-11" d="M171.5,25.9c.6-1.1,1-2.3,1.1-3.6.2-2.2-.8-4.4-2.1-6.1-.7-1-1.7-1.8-2.8-2.4-1-.5-2.2-.6-3.3-.4-1.1.2-2.1.7-3.1,1.3-.4.3-.9.5-1.3.8-2.1.2-4.2.8-6.1,1.9-.7.4-1.4.9-2,1.4-.7.6-1.3,1.3-1.7,2.1-.5,1.4-.3,3,.6,4.2.7,1,1.9,1.7,3.1,1.9-.4.2-.7.4-1,.6-.9.7-1.7,1.6-2.3,2.6-.5.9-.8,2.1-.5,3.1.3.9.9,1.8,1.7,2.4,1.9,1.4,4.3,1.3,6.5.7,2.2-.6,4.4-1.5,6.3-2.8,1.9-1.3,3.6-2.9,5-4.8.7-.9,1.3-1.9,1.8-2.9Z"/>
    <path class="cls-7" d="M153.1,32.9h6.2c.2,0,.2-.4,0-.4h-6.2c-.2,0-.2.4,0,.4h0Z"/>
    <path class="cls-11" d="M180.5,30.3c-.4,1.9-.4,3.8-.1,5.7.3,1.9.9,3.8,1.8,5.4.9,1.6,2.2,3.2,4.1,3.6.8.2,1.7,0,2.4-.3.8-.4,1.4-1.2,1.6-2,.3-.9.3-1.9.3-2.9,0-.3,0-.7-.2-1,.9.6,1.9.9,3,.8,1.2-.1,2.4-.9,2.9-2,.3-.7.4-1.5.4-2.2,0-.7-.1-1.4-.3-2-.4-1.7-1.2-3.4-2.3-4.8,0-.4-.1-.8-.2-1.2-.2-.9-.5-1.8-.9-2.6-.5-.8-1.2-1.4-2.1-1.8-1-.4-2-.4-3-.3-1.8.1-3.7.8-4.9,2.1-.7.8-1.2,1.7-1.5,2.7-.3.9-.6,1.8-.8,2.8Z"/>
    <path class="cls-8" d="M236.1,91.8c-.2-3.5-.6-6.9-1.4-10.3-.7-3-1.8-6-3.5-8.6-2.9-4.2-7.4-6.9-12.2-8.6-5.2-1.9-10.8-2.6-16.2-3.3-7.1-.8-14.3-1.4-21.4-1.6-7.1-.2-14.3,0-21.4.6-6.1.5-12.4,1.2-18.1,3.6-2.6,1.1-5,2.6-7.1,4.6-2,2-3.6,4.4-4.8,7-2.6,5.8-2.9,12.2-2,18.4.4,2.7.9,5.4,1.6,8-.3,1.8-.6,3.5-.8,5.3-.4,3.1-.7,6.2-.8,9.4,1.3,11.4,4.7,23.1,10.9,32.9,2.3,3.7,5.2,7.4,8.5,10.5.6.2,1.1.4,1.6.7,1.4.6,42.6,5.4,49.7,5.7,3.2.2,5.9-2.1,9.2-2.1,2.7,0,5.5-.3,8.1-1.2,2.6-.9,4.7-2.5,6.1-4.9,1.6-2.6,2.4-5.7,3.2-8.7,2-6.8,4.8-8.6,6.2-15.5,1.3-7,2.7-13.9,3.7-21,1-7,1.6-14,1.2-21.1Z"/>
    <path class="cls-8" d="M158.6,74.3c-3.9-5.3-6.2-12.1-12.9-11.4-10.5,1.1-23.8,17-30.3,24.4-8.1,9.2-15.1,19.4-21.4,29.9-3.3,5.5-6.4,11.1-9.2,16.9-5.4,11.4-8.6,25.2-2.6,37.1,4.4,8.7,13.8,13.9,23.6,13,2.5-.2,5-.9,7.4-1.9,2.8-1.3,5.2-3.1,7.4-5.1,4.8-4.4,8.7-9.6,12.3-14.9,3.6-5.4,7-10.9,10.3-16.5,6.6-11.3,12.5-23.1,16.3-35.6,3.4-11.3,6.6-25.5-1-35.8Z"/>
    <path class="cls-10" d="M136.5,120.9c-1.1-.2-2.2-.4-3.3-.6.4-.6.8-1.3,1.3-1.9.1-.2-.1-.4-.2-.2-.5.7-.9,1.3-1.4,2-1.6-.3-3.2-.7-4.8-1.2-2.8-.8-5.5-1.7-8.2-2.9-2.7-1.1-5.2-2.4-7.7-3.8-2.5-1.4-5-3-7.3-4.7-1.1-.8-2.1-1.6-3.2-2.5-1.5,2.2-2.9,4.4-4.3,6.6.8.8,1.6,1.5,2.4,2.2,2.1,1.7,4.2,3.3,6.5,4.7,2.3,1.4,4.7,2.7,7.1,3.7,2.5,1.1,5,2,7.6,2.7,2.6.7,5.2,1.2,7.9,1.5,0,0,0,0,.1,0-.2.4-.4.8-.6,1.2-.5,1-1,1.9-1.4,2.9,0,.2.2.3.3.1.4-.8.8-1.7,1.3-2.5.3-.6.6-1.1.9-1.7.2,0,.3,0,.5,0,.2,0,.3-.3,0-.3-.1,0-.3,0-.4,0,0-.2.2-.3.3-.5.9-1.6,1.9-3.2,2.9-4.8.1-.1.2-.3.3-.5.8.2,1.6.3,2.4.4.4,0,.7.1,1.1.2.2,0,.3-.3,0-.3Z"/>
    <g>
      <path class="cls-11" d="M184.1,83.6c.7.5,1,1.5.6,2.2l-14.4,29.4-2.6,2.9c-.4.5-1.2,0-1.1-.5l.7-3.8,14.4-29.5c.4-.9,1.5-1.2,2.4-.7Z"/>
      <path class="cls-12" d="M181.6,85.5c.9,0,1.7.4,2.2,1.1.1.2.4,0,.3-.2-.5-.9-1.5-1.4-2.5-1.3-.2,0-.2.4,0,.4h0Z"/>
      <path class="cls-12" d="M167.7,113.9c.9,0,1.7.4,2.2,1.1.1.2.4,0,.3-.2-.5-.9-1.5-1.4-2.5-1.3-.2,0-.2.4,0,.4h0Z"/>
    </g>
    <path class="cls-8" d="M283,165.4c-.4-11.1-6.1-21.1-10.9-30.8-7.1-14.3-14.7-28.5-23.8-41.6-6.3-9-14.9-22.2-25.4-26.6-2-.8-4.1-1.3-6.3-1-1.8.2-3.4,1.1-4.8,2.2-3,2.6-4.3,6.4-4.4,10.2,0,2.4.2,4.7.7,7.1.4,2.4.9,4.8,1.4,7.1,1,4.7,2.1,9.5,3.2,14.2,1.1,4.5,2.3,9.1,3.5,13.6-2.3-1.1-4.6-2-6.9-3-2.6-1-5.3-2-8-2.9-2.5-.8-5.1-1.7-7.8-2.2-4.5-.9-10.3-.8-12.4,4-.6,1.4-.8,2.9-.8,4.4-1.4,2.7-2.1,5.7-2.4,8.7-.4,4.2.3,8.4,1.7,12.4,1.5,4.3,3.8,8.3,6.5,12,7.4,10.3,16.4,18.3,27,26.4,8.2,6.2,18,11.7,28,14.4,8.5,2.3,17.9,1.7,25.7-2.4,9.9-5.2,16.4-14.9,16-26.1Z"/>
    <path class="cls-10" d="M259.8,111.4c-2.7,1.6-5.4,3.2-8.1,4.6-3.7,1.9-7.4,3.7-11.3,5.4-3.8,1.6-7.7,3.1-11.7,4.4-1.5.5-3.1.9-4.6,1.4.2,0,.3.2.5.3,2.2,1.2,4.3,2.5,6.5,3.8,1.1.7,2.1,1.3,3.2,2,.2.1.4.3.7.4,3.7-1.3,7.3-2.7,10.9-4.2,3.8-1.7,7.6-3.5,11.2-5.5,2.5-1.4,5-2.8,7.4-4.3-1.5-2.8-3-5.5-4.5-8.2Z"/>
    <path class="cls-7" d="M215.5,63.3c-4.2-1.1-8.5-1.7-12.8-2.2-7.1-.8-14.3-1.4-21.4-1.5-7.1-.2-14.3,0-21.4.6-2.2.2-4.4.4-6.7.7-3,2.2-7,9.9-8.9,16.7-2.4,8.3-2.9,25-4,28.7-2.2,7.5-3.6,15.1-4.1,22.9-.3,3.9-.4,7.8-.3,11.7,0,1.9.2,3.8.3,5.8.1,1.8-.2,5.2.2,7,.4,1.6.9,3.3,2,4.6,1.1,1.4,2.8,2.2,4.4,2.9,11,4.5,21,5.8,32.9,6.3,7.8.3,14.7.3,22.5-.3,0,0-8.1-6.8-10.5-11.3-2.2-4.2-1.2-8.8.1-11.4-3.1-2.6-9.6-6.9-8.8-11,.9-5,.3-7.8,1.3-12.9.5-2.4,1.4-2.4,2.5-4.6,1.1-2,2.5-4.2,4.7-5,.2,0,.3-.1.5-.1,0,0,0-.1,0-.1,1.2-.7,3.2-.9,5.6,0,2.3.9,12.8,6.3,17.9,9.1-1.4-4-3.3-12.4-3.9-16.6-1.9-12.5-1-20.9.2-26,1.2-4.9,3.2-10.5,7.8-13.8Z"/>
    <path class="cls-10" d="M185.5,142.4c-3.8.1-7.5,0-11.3-.2-5.3-.3-10.5-1-15.7-2.2-5-1.1-10-2.6-14.7-4.4-2.4-.9-4.7-2-7.1-3.1-.4,2.3-.8,4.6-1.1,7,0,.1,0,.2,0,.4,0,0,0,0,0,0,3.3,1.7,6.6,3.1,10.1,4.4,4.8,1.7,9.7,3.1,14.7,4.1,5.2,1,10.5,1.6,15.9,1.9,3.3.1,6.6.1,10,0,0-2.4.6-4.6,1.4-6.1-.6-.5-1.4-1.1-2.3-1.8Z"/>
    <path class="cls-11" d="M175.6,72.9c-1.4,5.8-2.6,11.7-3.5,17.7-1,6.1-1.7,12.2-2.3,18.3-.6,6.3-.9,12.6-1,18.9-.1,6.3,0,12.5.3,18.8.3,6,.9,12.1,1.7,18.1.1.7.2,1.5.3,2.2,0,.2.4.1.4,0-.9-6-1.5-12.1-1.9-18.1-.4-6.2-.6-12.4-.5-18.6,0-6.3.3-12.5.8-18.7.5-6.2,1.2-12.4,2.1-18.5.9-5.9,2-11.8,3.4-17.7.2-.7.3-1.4.5-2.1,0-.2-.3-.3-.4,0h0Z"/>
    <path class="cls-10" d="M203.6,61.2c-.4.6-.8,1.3-1.2,2-2.6,4.5-4.6,9.4-6.1,14.4-1.7,5.5-2.8,11.2-3.4,17-.6,5.2-.8,10.4-.7,15.6.5.1.9.3,1.4.5.9.4,3.3,1.5,6.1,2.9,0-1,0-2,0-3,0-6.1.2-12.3,1-18.4.8-5.6,2-11.2,3.8-16.5,1.6-4.6,3.6-9.2,6-13.4-2.3-.4-4.6-.7-6.8-1Z"/>
    <path class="cls-10" d="M159.8,60.1c-1.6.1-3.3.3-5,.5-.5.9-1,1.7-1.4,2.6-2.4,4.6-4.2,9.6-5.6,14.6-1.5,5.6-2.4,11.3-2.8,17.1-.4,6.1-.4,12.3,0,18.4.3,4.4,1.4,24.7,2,29.1.3,0,.6,0,.8.1,2.3.4,4.6.9,6.9,1.5-.9-5.8-2.1-27.6-2.4-33.5-.3-6.1-.3-12.3.3-18.4.5-5.6,1.5-11.2,3.1-16.7,1.5-5,3.5-9.9,6-14.5.2-.4.4-.7.6-1.1-.9,0-1.8.1-2.7.2Z"/>
    <path class="cls-1" d="M183.4,131c.3,0,.6,0,.8,0,.7-.1,1.3-.6,1.8-1,3.5-2.9,5.7-6.9,5.1-11.5-.6-4.6-3.1-8.7-5.1-12.8-1.5-3.1-2.8-6.5-6.3-8-3-1.2-5.8.3-8.3,2.1-3.4,2.4-6.5,4.3-7,8.8-.3,2.4.2,4.9,1,7.2.4,1.2.8,2.3,1.4,3.5.5,1,1,2,1.9,2.7,1.1.8,2.4,1.2,3.7,1.6.2,0,.3,0,.5.1,1.8,2.2,4,4.1,6.6,5.5,1.2.7,2.6,1.7,4,1.8Z"/>
    <path class="cls-11" d="M170.1,107.1c2.4-1.6,5-2.6,7.8-3.1.2,0,.1-.4,0-.4-2.8.5-5.5,1.6-7.9,3.1-.2.1,0,.4.2.3h0Z"/>
    <path class="cls-11" d="M170.1,112.5c2.4-1.6,5-2.6,7.8-3.1.2,0,.1-.4,0-.4-2.8.5-5.5,1.6-7.9,3.1-.2.1,0,.4.2.3h0Z"/>
    <path class="cls-5" d="M160,133.3l23.9-.2c1.7,0,2.8-1.8,2.1-3.3l-15.9-36.1c-.6-1.5-2.1-2.4-3.7-2.4l-23.9.2c-1.7,0-2.8,1.8-2.1,3.3l15.9,36.1c.6,1.5,2.1,2.4,3.7,2.4Z"/>
    <path class="cls-11" d="M184.1,133.1c0-.5,0-1.1-.2-1.6,0-.1-.1-.3-.2-.4-.2-.6-.5-1.1-.7-1.7-.4-.9-.8-1.8-1.2-2.7-.5-1.2-1-2.3-1.5-3.5-.6-1.3-1.2-2.7-1.8-4-.6-1.5-1.3-2.9-1.9-4.4-.6-1.5-1.3-2.9-1.9-4.4-.6-1.4-1.2-2.8-1.9-4.3-.6-1.3-1.1-2.6-1.7-3.8-.5-1.1-.9-2.1-1.4-3.2-.3-.8-.7-1.6-1-2.3-.2-.4-.4-.8-.5-1.2-.6-1.3-1.7-2.2-3-2.5-.6-.1-1.2,0-1.8,0-1,0-1.9,0-2.9,0-1.4,0-2.8,0-4.2,0-1.6,0-3.2,0-4.8,0-1.5,0-3.1,0-4.6,0-1.3,0-2.5,0-3.8,0-.7,0-1.5,0-2.2,0,0,0-.2,0-.3,0-.2,0-.2.4,0,.4.4,0,.8,0,1.2,0,1,0,2,0,3.1,0,1.4,0,2.8,0,4.3,0,1.6,0,3.2,0,4.8,0,1.5,0,3,0,4.6,0,1.2,0,2.4,0,3.7,0,.7,0,1.4,0,2,0,.3,0,.6,0,.9,0,1.2.2,2.2.9,2.7,2,.2.3.3.6.4.9.3.6.5,1.2.8,1.8.4.9.8,1.9,1.2,2.8.5,1.2,1,2.4,1.6,3.5.6,1.4,1.2,2.7,1.8,4.1.6,1.4,1.3,2.9,1.9,4.3.6,1.5,1.3,2.9,1.9,4.4.6,1.4,1.2,2.8,1.8,4.2.6,1.3,1.1,2.5,1.7,3.8.5,1,.9,2.1,1.4,3.1.3.7.7,1.5,1,2.2.2.4.3.7.5,1.1.2.4.3.9.2,1.3,0,.2.3.3.4,0h0Z"/>
    <path class="cls-8" d="M194.7,60.4c-.1-1.4-.5-2.8-1.6-3.9-1.5-1.7-3.8-2.6-6-3-1.4-.3-2.8-.4-4.2-.4-4.5,0-8.8.7-12.7,3.4-2.1,1.5-3.3,3.7-4.1,6.1-.9,2.5-1.6,5.2-2,7.8-.4,2.5-.6,5-.3,7.6,0,.7,0,1.6.7,2,.6.4,1.5.3,2.5-.1,1-.4,2-1.1,3-1.7,1-.7,2-1.5,2.9-2.4,1-.9,2-1.8,2.9-2.8,0,0,0,0,0,0,.3.7,1.1,1.9,1.6,2.5.6.9,1.3,1.8,2.1,2.6.7.7,1.6,1.4,2.6,1.9,1,.4,2.1.6,3,.1,1.5-.7,2.6-2.5,3.5-3.7,2.1-3.1,4-6.3,5.2-9.9.3-1,.6-2,.7-3,.1-1,.2-2,.2-3Z"/>
    <path class="cls-11" d="M175.8,73.4c-.2-2.8,0-5.7.9-8.5.2-.8.5-1.5.8-2.2,0-.2-.3-.3-.4,0-1.1,2.6-1.6,5.5-1.7,8.4,0,.8,0,1.6,0,2.4,0,.2.4.2.4,0h0Z"/>
    <g>
      <path class="cls-1" d="M184.8,39.1l-15.8-1.1,3.2,22.1s1.7,3.1,7.6,2.2c5.9-.9,7.9-4.1,7.9-4.1l-3-19.1Z"/>
      <g>
        <path class="cls-1" d="M191.8,24.2c0-.3,0-.6-.1-.9-1.5-10.9-14.2-16.3-23.6-11.4-7.9,4.1-11.6,12.4-12.3,20.3,0,.7-.1,1.5-.1,2.3,0,.2-.2.4-.2.6-2.7,8.2-1.6,17.8,6.7,19,5.2.8,10.2-1.1,14.4-3.8,8.8-5.9,16.4-15.1,15.4-26.1Z"/>
        <path class="cls-11" d="M158.1,35.8c-.5,0-1.2-.3-1.4-1.3-.4-1.4,0-4,1.7-3.7,1.8.2,1.6,4.9-.3,5Z"/>
        <path class="cls-11" d="M172,14.7c-.8-1.3-2.3-2-3.7-2.5-1.4-.5-2.9-.7-4.4-.5-1.5.1-3,.5-4.3,1.2-.7.4-1.6.9-2.1,1.6-.8.4-1.6,1-2.2,1.7-.9,1-1.7,2.4-1.4,3.8.1.6.5,1.2,1,1.6.6.3,1.2.4,1.9.4.7,0,1.4-.2,2-.4.8-.2,1.5-.5,2.2-.9,0,0,0,0,0,0,0,.2-.1.3-.2.5-.2.7-.4,1.6,0,2.3.4.7,1.1,1,1.8,1.2,4.5,1.2,12.3-5.2,9.2-10Z"/>
        <path class="cls-11" d="M167.8,35.8c-.5,0-1.2-.3-1.4-1.3-.4-1.4,0-4,1.7-3.7,1.8.2,1.6,4.9-.3,5Z"/>
        <path class="cls-11" d="M174.2,26.8c-.4-.6-.9-1.2-1.6-1.6-2.5-1.5-6.7-.9-7.5,1.3-.3.9-.3,2,.7,2.3.8.3,2.1.2,2.9.2.9,0,1.6.2,2.5.4,1,.2,2.7.5,3.3-.4.5-.7.1-1.6-.2-2.3Z"/>
        <path class="cls-11" d="M161.1,28.7c-.5.2-1,.2-1.8,0-.6-.1-1.4-.6-2-.5-.7.1-.9,0-1.5.3.3-1.4.3-2.1.8-3.4,2.2-1.1,4.9-.4,5.6,1.1.4.9.1,2.1-1,2.5Z"/>
        <path class="cls-7" d="M161.2,33.9c0,2-.8,4.2-2.6,5.2-.8.4-1.7.4-2.5.1-.9-.3-1.5-1-2-1.8-1.1-1.9-1.2-4.4-.3-6.4.7-1.6,2.3-3.1,4.2-2.6,2.3.6,3.2,3.3,3.2,5.4,0,.2.4.2.4,0,0-2.1-.9-4.6-2.9-5.5-.8-.4-1.8-.5-2.7-.1-.9.4-1.7,1.1-2.2,1.9-1.2,2-1.3,4.7-.4,6.8.8,1.8,2.6,3.3,4.6,2.8,2.1-.6,3.2-2.9,3.5-4.9,0-.3,0-.6,0-.9,0-.2-.4-.2-.4,0Z"/>
      </g>
      <path class="cls-11" d="M176.4,6.9c-5.1-.6-11.4,1.2-15,4.2-3.2,2.8-3.7,6.6-3.2,10.8,0,0,0,.4,0,.4,3.8-7.1,9.4-5.2,9.4-5.2,4.3-1.7,2.4,1.5,8.6,1,3.7-.3,6.4,10,4.4,13.1-1.6,2.8-1.6,7.2-1,10.3.6,3.1,3.7,7.4,6.7,8.3l-.2-6.1c7-6.6,10-17.3,9.7-21.4-.4-5.5-4.1-9.6-8.8-12.1-2.9-1.5-6.8-2.8-10.7-3.2Z"/>
      <path class="cls-11" d="M162.6,32.8c-.8.6-1.3,1.4-1.4,2.3-.1,1,.2,1.9.9,2.6.2.2.4,0,.3-.3-1.2-1.3-1-3.4.4-4.4.2-.1,0-.5-.2-.3h0Z"/>
      <path class="cls-11" d="M171.3,53.2c1.6-.6,3.1-1.4,4.4-2.5.2-.1,0-.4-.3-.3-1.3,1-2.7,1.8-4.3,2.4-.2,0-.1.4,0,.4h0Z"/>
      <path class="cls-1" d="M184.5,37.1c-.5,3-3.3,5-6.3,4.6-3-.5-5-3.3-4.6-6.3.5-3,3.3-5,6.3-4.6,3,.5,5,3.3,4.6,6.3Z"/>
      <path class="cls-7" d="M173.4,32.9h6.2c.2,0,.2-.4,0-.4h-6.2c-.2,0-.2.4,0,.4h0Z"/>
      <path class="cls-11" d="M186.2,21.5c-.5-1.3-1.6-2.5-3.1-2.8-3.2-.6-5.8,2.5-6.9,5.1-.9,2.2-2.2,6.8.1,8.6.6.5,1.3.7,2.1.7,1.8,0,3.3-1.1,4.5-2.3,1.3-1.3,2.3-2.8,3-4.5.6-1.5.9-3.3.3-4.8Z"/>
      <path class="cls-11" d="M180.6,33.4c.8.7,1.3,1.7,1.3,2.8,0,1.1-.2,2.1-.9,3-.1.2.2.4.3.2,1.4-1.9,1.2-4.6-.5-6.2-.2-.2-.4,0-.3.3h0Z"/>
      <path class="cls-10" d="M160.4,42.6c1.7,2.8,6.9,2.1,7.4-1.9,0-.3-.3-.5-.5-.5l-6.6,1.8c-.3,0-.4.4-.3.6Z"/>
      <path class="cls-2" d="M185.1,25.2c1.4.9,2.8,1.8,4.1,2.9,1.1.9,2.1,1.8,3.1,2.7.9.8,2,1.4,3.3,1,1.6-.4,2.1-2.8,2.4-4.1,1.4-8,1.7-13.2-3.2-18.8-4.8-5.5-11.8-8.4-19-8.9-5-.4-9.8.1-13.2,3.9-2.6,2.8-4.6,6.8-5.6,10.6-1.8-.1-3.7-.2-5.5-.1-.9,0-2.6.1-2.8,1.3-.1,1.1,1.1,1.5,1.9,1.6,2.8.2,5,.3,7.7.5,2.5.2,5,.6,7.5.9,6.9,1,13.5,2.9,19.3,6.5Z"/>
      <path class="cls-7" d="M161.7,14.5c.7-2.2,1.7-4.4,2.8-6.4.6-1,1.2-2,1.8-3,.6-.9,1.2-1.8,2-2.6.8-.9,1.8-1.6,3-2,.2,0,.1-.4,0-.4-2.1.7-3.6,2.5-4.8,4.2-1.4,2-2.6,4.1-3.6,6.3-.6,1.2-1,2.5-1.5,3.7,0,.2.3.3.4,0h0Z"/>
      <path class="cls-7" d="M167.3,15.3c.9-2.5,1.9-5,3.3-7.3,1.1-1.9,2.4-3.8,4-5.4.9-.8,1.9-1.5,3.1-1.9.2,0,.1-.4,0-.4-2.1.7-3.8,2.4-5.1,4.1-1.5,2-2.7,4.2-3.8,6.5-.6,1.4-1.2,2.8-1.7,4.3,0,.2.3.3.4,0h0Z"/>
      <path class="cls-7" d="M179.8,21.9c.5-.4.8-1.1.8-1.7,0-.7-.5-1.3-1.1-1.8-.6-.5-1.4-.7-2.2-1-.9-.3-1.8-.5-2.8-.7-3.5-.9-7.1-1.6-10.7-2.1-2.1-.3-4.3-.5-6.4-.6-.2,0-.2.4,0,.4,3.5.2,7.1.6,10.6,1.3,1.7.3,3.4.7,5.1,1.1.9.2,1.8.4,2.6.7.8.2,1.7.4,2.5.7.8.3,1.6.8,1.9,1.5.3.7,0,1.5-.5,2-.2.1,0,.4.3.3h0Z"/>
      <path class="cls-7" d="M195,9.3c-1.3-.3-2.7-.5-4-.2-.9.2-1.7.7-2.4,1.2-1.7,1.4-2.9,3.5-3.8,5.5-.6,1.4-1.1,2.8-1.5,4.3,0,.2.3.3.4,0,.7-2.4,1.5-4.8,2.8-6.9,1-1.6,2.3-3.2,4.2-3.8,1.3-.5,2.9-.3,4.2,0,.2,0,.3-.3,0-.4h0Z"/>
      <path class="cls-7" d="M178.3,18.2c4,1.4,7.7,3.5,11.1,6,1.1.8,2.2,1.7,3.3,2.6.7.5,1.4,1.1,2.2,1.5.3.1.6.2,1,.1,1-.2,1.8-1.2,2.3-2.1.1-.2-.2-.4-.3-.2-.4.8-1.1,1.7-2,1.9-.2,0-.5,0-.7,0-.8-.3-1.5-.9-2.1-1.4-1.1-.8-2.1-1.7-3.2-2.5-1.4-1.1-2.9-2.1-4.5-3-2.2-1.3-4.5-2.3-6.9-3.2-.2,0-.3.3,0,.4h0Z"/>
      <path class="cls-7" d="M173.3,33.9c0,2.1-1,4.3-2.9,5.2-.9.4-1.8.4-2.7.1-.9-.3-1.7-1-2.2-1.8-1.2-1.9-1.3-4.4-.4-6.4.9-1.7,2.7-3.1,4.7-2.6,2.3.6,3.5,3.2,3.5,5.4,0,.2.4.2.4,0,0-2.2-1-4.6-3.2-5.5-.9-.4-2-.5-2.9-.1-1,.3-1.8,1-2.4,1.9-1.3,2-1.5,4.7-.4,6.8.9,1.9,2.9,3.3,5,2.7,2.2-.5,3.5-2.7,3.8-4.9,0-.3,0-.6,0-.9,0-.2-.4-.2-.4,0Z"/>
      <path class="cls-7" d="M161.5,33.5c.3-.3.7-.6,1.2-.6.5,0,1,.3,1.4.6.2.2.4,0,.3-.3-.5-.4-1-.7-1.7-.7-.6,0-1.1.3-1.5.7-.2.2,0,.4.3.3h0Z"/>
    </g>
    <path class="cls-8" d="M142.4,130.6c2,1.9,3,5.1,1.7,7.9-1.3,2.7-6.1,8.3-6.1,8.3,0,0,2.9,3.6,2.5,8.7s-15.4,19.9-26.2,26.2c-9.6,5.7-30.9-19.5-29.6-24.8,1.3-5.2,19.5-24.9,27.1-30.6,12.5-9.5,17.2-14.5,21.1-12,3.9,2.6,9.5,16.3,9.5,16.3Z"/>
    <path class="cls-11" d="M118.5,121.4c.4,4.5,1.7,8.9,3.8,12.9,1.1,2,2.3,3.8,3.7,5.6,1.4,1.7,3.1,3.4,5,4.6,2.1,1.4,4.5,2.3,7,1.9.2,0,.1-.4,0-.4-4.5.6-8.4-2.8-11.2-6-2.9-3.3-5.1-7.3-6.4-11.5-.8-2.4-1.3-4.8-1.5-7.3,0-.2-.4-.2-.4,0h0Z"/>
    <path class="cls-11" d="M135.4,115.8c-1.2-1.2-2.8-2.1-4.6-2.1-1.8,0-3.5.8-5,1.8-1.6,1.1-3.1,2.4-4.7,3.6-1.6,1.3-3.2,2.5-4.8,3.8-3.2,2.6-6.4,5.1-9.5,7.8-3.1,2.6-6.3,5.2-9.4,7.9-3.1,2.7-6.2,5.3-9.2,8.1-.4.3-.7.7-1.1,1-.2.2,0,.4.3.3,3-2.7,6-5.3,9.1-8,3-2.6,6.1-5.2,9.1-7.7,3.1-2.6,6.2-5.1,9.3-7.7,3.1-2.5,6.3-5,9.4-7.5,1.4-1.1,3-2.2,4.8-2.7.9-.2,1.8-.3,2.7-.2.8.2,1.6.5,2.3,1,.4.3.7.6,1.1.9.2.2.4,0,.3-.3h0Z"/>
    <path class="cls-1" d="M160.2,119.8c.2,0,.3-.2.5-.3.9-.7,1.4-1.8,1.1-2.9-.3-1.2-1.2-2.2-2.1-3-.9-.8-2-1.6-3.1-2.3-.5-.3-1-.5-1.5-.8.7,0,1.3,0,2-.2,1.3-.2,2.6-.8,3.4-1.8.7-.9.9-2,.4-3.1-.6-1.1-1.7-1.9-2.8-2.5-1.1-.6-2.3-1.2-3.6-1.6-2.5-.9-5.2-1.4-7.9-1.7-1.9-.2-3.8-.5-5.7-.5-2.7,0-4.2,1.6-5.3,3.6-1,1.9-1.4,4-1.8,6.1-.6,3.2-1.1,6.5-1.3,9.8,0,0,0,0,0,0,0,0-3.7,5.1,0,10.7,0,.1.2.3.3.4,0,0,0,0,0,0,0,.1.2.2.2.3,0,0,.1.2.2.3.9,1.1,1.8,1.8,2.7,2.2,0,0,0,0,.1,0,1.7,1.1,3.7,1.6,5.7,1.1,1.9-.5,3.6-1.8,5-3,1.5-1.3,2.8-2.7,4-4.3.4-.5.8-1.1,1.1-1.7,1.8.3,3.7.6,5.4.6,1.2,0,2.4-.2,3.3-.9.8-.7,1.2-1.6,1-2.6-.2-.8-.7-1.5-1.3-2.1Z"/>
    <path class="cls-11" d="M143.1,107.2c3.2.3,6.4,1.1,9.3,2.3.8.3,1.7.7,2.5,1.1.2.1.4-.2.2-.3-2.9-1.5-6-2.5-9.2-3.1-.9-.2-1.8-.3-2.8-.4-.2,0-.2.3,0,.4h0Z"/>
    <path class="cls-11" d="M145.9,114.2c3.9,1,7.6,2.3,11.2,4.1,1,.5,2,1,2.9,1.6.2.1.4-.2.2-.3-3.4-2-7.1-3.6-10.9-4.8-1.1-.3-2.2-.6-3.3-.9-.2,0-.3.3,0,.4h0Z"/>
    <path class="cls-11" d="M211.4,119.8c4.8,2.8,9.5,5.6,14.3,8.4,4.8,2.8,9.5,5.6,14.3,8.4,2.7,1.6,5.3,3.1,8,4.7.2.1.4-.2.2-.3-4.8-2.8-9.5-5.6-14.3-8.4-4.8-2.8-9.5-5.6-14.3-8.4-2.7-1.6-5.3-3.1-8-4.7-.2-.1-.4.2-.2.3h0Z"/>
    <path class="cls-11" d="M187.9,144.2c2.6.4,4.7-1.5,6.3-3.3,1.5-1.6,2.7-3.5,3.7-5.4,1.1-2,2-4.2,2.6-6.4.7-2.2,1.2-4.5,1.6-6.8.3-2.2.5-4.3.4-6.5,0-.3,0-.5,0-.8,0-.2-.4-.2-.4,0,.2,4.3-.4,8.7-1.6,12.9-1.2,4.2-3.1,8.4-5.9,11.9-.8,1-1.6,1.9-2.6,2.7-1.2.9-2.6,1.7-4.1,1.4-.2,0-.3.3,0,.4h0Z"/>
  </g>
</svg>