<?xml version="1.0" encoding="UTF-8"?>
<svg id="_레이어_1" data-name=" 레이어 1" xmlns="http://www.w3.org/2000/svg" version="1.1" viewBox="0 0 24 24">
  <defs>
    <style>
      .cls-1 {
        fill: none;
      }

      .cls-1, .cls-2 {
        stroke-width: 0px;
      }

      .cls-2 {
        fill: #fff;
      }
    </style>
  </defs>
  <path class="cls-2" d="M23,6.4c-.3-1-1.1-1.7-2-2-1.8-.5-9-.5-9-.5,0,0-7.2,0-9,.5-1,.3-1.7,1.1-2,2-.5,1.8-.5,5.6-.5,5.6,0,0,0,3.7.5,5.6.3,1,1.1,1.7,2,2,1.8.5,9,.5,9,.5,0,0,7.2,0,9-.5,1-.3,1.7-1.1,2-2,.5-1.8.5-5.6.5-5.6,0,0,0-3.7-.5-5.6ZM9.7,15.5v-6.9l5.9,3.4-5.9,3.5Z"/>
  <rect class="cls-1" width="24" height="24"/>
</svg>