<?xml version="1.0" encoding="UTF-8"?>
<svg id="_레이어_1" data-name="레이어 1" xmlns="http://www.w3.org/2000/svg" version="1.1" viewBox="0 0 227.9 282.9">
  <defs>
    <style>
      .cls-1 {
        stroke-width: 2.4px;
      }

      .cls-1, .cls-2, .cls-3, .cls-4, .cls-5, .cls-6, .cls-7 {
        stroke-linecap: round;
        stroke-linejoin: round;
      }

      .cls-1, .cls-2, .cls-3, .cls-8, .cls-6, .cls-7 {
        stroke: #231815;
      }

      .cls-1, .cls-4, .cls-5, .cls-8, .cls-7 {
        fill: none;
      }

      .cls-2, .cls-3 {
        fill: #a9cd36;
      }

      .cls-2, .cls-8, .cls-6, .cls-7 {
        stroke-width: 3.2px;
      }

      .cls-9 {
        fill: #7dccf3;
      }

      .cls-9, .cls-10, .cls-11, .cls-12, .cls-13, .cls-14, .cls-15 {
        stroke-width: 0px;
      }

      .cls-10 {
        fill: #e0545e;
      }

      .cls-11 {
        fill: #231815;
      }

      .cls-3 {
        stroke-width: 3.4px;
      }

      .cls-4 {
        stroke-width: 1.6px;
      }

      .cls-4, .cls-5 {
        stroke: #fff;
      }

      .cls-12 {
        fill: #00aeeb;
      }

      .cls-5 {
        stroke-width: 1.7px;
      }

      .cls-13 {
        fill: #f9d3bf;
      }

      .cls-14 {
        fill: #f09ba5;
      }

      .cls-15 {
        fill: #fff;
      }

      .cls-8 {
        stroke-miterlimit: 10;
      }

      .cls-6 {
        fill: #0068b6;
      }
    </style>
  </defs>
  <g>
    <path class="cls-2" d="M184.5,214.6c1.2,8.1,3.8,31.2,4.4,43.4.9,19.3-9,22.1-40.8,21-19.7-.7-19.5-3.8-20.1-14.5-.2-3.8.9-9.2,4.8-12.9,0,0,.1-10.4-1.5-26.7"/>
    <path class="cls-2" d="M137.9,252.3c-3.2,2.1-5.6,5.3-6.6,8.9"/>
  </g>
  <g>
    <path class="cls-2" d="M150.6,218.7c1.2,8.1,4.5,26,5.1,38.3.9,19.3-.5,27-33.5,25.7-19.7-.8-27.1-4.4-27.5-15.1-.2-5.9,2-12.2,5.8-15.3,0,0,0-8.1-1.4-22.4"/>
    <path class="cls-2" d="M101.3,251.6c-3.2,2.1-4.8,5.9-5.9,9.5"/>
  </g>
  <path class="cls-2" d="M133.5,234c-16.1,2-43.8.4-50.9-20.3-7.8-22.7-1.3-54.1-1.3-54.1h60.6"/>
  <path class="cls-2" d="M92.1,1c22.8-3.5,50.8,2.5,66.4,19.4,26.9,29.2,25,66.9,26.8,71,3.7,8.5,5.5,16.6,5.3,22.7-.3,10.8-5.3,22.8-28.2,33-11.9,5.3-34.6,10.7-45.7,12.4h0c-11.1,1.7-34.4,3.5-47.3,2.1-24.9-2.8-33.4-12.7-36.9-22.9-2-5.7-2.8-14-1.8-23.2.5-4.5-12.9-39.8,3.9-75.8C44.2,18.8,69,4.6,91.9,1h.2Z"/>
  <path class="cls-1" d="M110.7,42.8s8-4.4,15.4,2.3"/>
  <g>
    <path class="cls-13" d="M154.7,116.9c.4,6-6.7,11.9-15.8,13.2-9.2,1.3-17-2.5-17.5-8.5-.4-6,6.6-11.9,15.8-13.2,9.2-1.3,17,2.5,17.5,8.5Z"/>
    <path class="cls-13" d="M50.8,132.5c-1.4-5.9-10-9.3-19.1-7.8,0,0-.2,0-.2,0,.2,5,1,9.4,2.2,12.8,1,2.7,2.3,5.5,4.2,8,8.6-1.8,14.3-7.6,13-13.2Z"/>
  </g>
  <path class="cls-1" d="M49.1,52.4s-9-1.8-14,6.9"/>
  <g>
    <path class="cls-10" d="M104.5,112.5c-13.2,4.9-31.5,6-31.5,6,0,0,1,22.9,21.6,19.3,14.5-2.5,13.4-17.7,12.3-23.7"/>
    <path class="cls-14" d="M106.4,125.7c-2.8-1-7.2-2.2-12.5-1.2-10.7,2-13.2,8.3-13.8,9.9,0,0,2.7,4.6,14.4,3.5,11.7-1.2,11.9-12.2,11.9-12.2Z"/>
    <path class="cls-7" d="M106.2,111.8c-13,4.5-33.2,6.7-33.2,6.7,0,0,1.1,23.1,21.6,19.3,13.7-2.5,14.3-16.8,11.7-26"/>
  </g>
  <g>
    <path class="cls-6" d="M122.7,163.1s-13.1-12.4-30.9-9.3c-14.9,2.6-19.4,15.6-19.5,17.1,0,0,14.4-20.4,38.6-2.7"/>
    <path class="cls-6" d="M110.4,208.2c-3.8,1.2-18.3,1.4-25.2-2.9l-13.3,4.8s18.7,10.9,38.3,7.5"/>
  </g>
  <path class="cls-2" d="M103.8,165.6s8.5,25.3-17.6,52.7c-23.5,24.6-58.5,18.7-59.9-7.4-.5-9,4.3-20.8,22.1-23,10.8-1.4,18.3-8.9,22.1-14.2,10.1-14.4,25.7-16,33.4-8.4"/>
  <g>
    <ellipse class="cls-6" cx="163.5" cy="182.8" rx="61.8" ry="63.6"/>
    <ellipse class="cls-12" cx="169.7" cy="181.3" rx="58.2" ry="59.6"/>
    <path class="cls-5" d="M207,226.4c-24.8,14.5-57.7,4.5-73.7-22.5-16-27.1-9.2-61.7,15.6-76.3,8.1-4.8,17-6.8,26-6.5"/>
    <path class="cls-4" d="M227.7,181.1c-2.5,8-7.7,15-15.3,19.5-17.3,10.2-40.3,3.2-51.4-15.6-11.1-18.8-6.2-42.4,11.1-52.6,7.6-4.5,16.2-5.6,24.5-4"/>
    <g>
      <path class="cls-4" d="M111.7,175.8s45.7-26,89.7-16.4c8.9,1.9,22.1,6.2,25.2,9.3"/>
      <path class="cls-4" d="M185.4,238.9c6.3-4.7,23.4-36.8,15.9-79.7-2.2-12.8-13.1-31.3-18.6-35.3"/>
      <path class="cls-4" d="M209.9,138.6s-3.4,10.5-8.5,20.5c-5.6,10.8-23.7,45.6-69.2,67.3"/>
      <path class="cls-4" d="M139,131.5s35.9-4.1,62.6,27.6c9.3,11,21.1,27.5,23.4,39"/>
    </g>
    <path class="cls-9" d="M215.7,146.1c-1.6,4-2.8,7.2-2.8,7.2-.2.5-.5,1-.7,1.5.7.3,1.4.7,2.2,1.1l8.9,4.3,2.7,11.7c-1,.3-2.9.8-3.3,1l-12.3-7.6c-3.2-1.9-4.9-2.6-7.4-1.8-2.5.8-3.5,2.4-5,5.8l-5,12c-.4,1.1-1.1,1.6-2.4,2l-17.4,5.7c-10.8,3.5-24.9,3.1-30.5-14.7,0,0-4.7-14.8-4.8-15.1.3,0,10.4-3.4,10.6-3.5,0,.2,4.8,15.1,4.8,15.1,2.5,8,9.2,11.3,17.4,8.6,0,0,9-2.9,14.2-4.6l4.5-10.7c.3-.8.7-1.4,1.1-2.1-.5-.3-1-.5-1.5-.8l-19.6-12.7,12.1-3.9,11.3,7.3c3.1,2,4.8,2.7,7.2,1.9,2.4-.8,3.4-2.4,4.7-5.8,0,0,2.5-6.4,4-10.1"/>
    <path class="cls-15" d="M215.8,144.8c-1.4,3.6-2.6,6.5-2.6,6.5-.2.5-.5,1-.7,1.5.7.3,1.4.7,2.2,1.1l7.9,4.8,2.7,11.4c-1,.3-1.8.6-2.3.7l-12.3-7.6c-3.2-1.9-4.9-2.6-7.4-1.8-2.5.8-3.5,2.4-5,5.8l-5,12c-.4,1.1-1.1,1.6-2.4,2l-17.4,5.7c-10.8,3.5-24.9,3.1-30.5-14.7,0,0-4.7-14.8-4.8-15.1.3,0,10.4-3.4,10.6-3.5,0,.2,4.8,15.1,4.8,15.1,2.5,8,9.2,11.3,17.4,8.6,0,0,9-2.9,14.2-4.6l4.5-10.7c.3-.8.7-1.4,1.1-2.1-.5-.3-1-.5-1.5-.8l-19.6-12.7,12.1-3.9,11.3,7.3c3.1,2,4.8,2.7,7.2,1.9,2.4-.8,3.4-2.4,4.7-5.8,0,0,2.2-5.7,3.7-9.4"/>
    <ellipse class="cls-8" cx="169.3" cy="181" rx="58.2" ry="59.6"/>
    <g>
      <path class="cls-15" d="M128.8,169.7c0,2.2-1.8,3.9-3.9,3.9s-3.9-1.8-3.9-3.9,1.8-3.9,3.9-3.9,3.9,1.8,3.9,3.9Z"/>
      <path class="cls-15" d="M150,219c0,2.2-1.8,3.9-3.9,3.9s-3.9-1.8-3.9-3.9,1.8-3.9,3.9-3.9,3.9,1.8,3.9,3.9Z"/>
      <path class="cls-15" d="M171.3,135.3c0,2.2-1.8,3.9-3.9,3.9s-3.9-1.8-3.9-3.9,1.8-3.9,3.9-3.9,3.9,1.8,3.9,3.9Z"/>
      <path class="cls-15" d="M203.6,204.8c0,1.7-1.4,3.1-3.1,3.1s-3.1-1.4-3.1-3.1,1.4-3.1,3.1-3.1,3.1,1.4,3.1,3.1Z"/>
    </g>
  </g>
  <path class="cls-3" d="M56.8,188.4c-6.4-2-16.1-1.4-22.8,4-11.9,9.6-13.3,32.8,5.4,40,15.4,5.8,34.4,0,46.1-13.3"/>
  <g>
    <path class="cls-15" d="M105.2,89.4c1.9,13.4,9.9,17.3,18.8,16,8.9-1.3,15.5-7.2,13.6-20.6-1.9-13.4-9.7-23.3-19.6-21.9-10.6,1.5-14.6,13.2-12.7,26.5Z"/>
    <g>
      <path class="cls-15" d="M35.9,99.9c1.9,13.4,9.4,17.3,17.8,16.1s14.5-7.1,12.6-20.5c-1.9-13.4-9.4-23.4-18.7-22-9.9,1.4-13.7,13-11.8,26.4Z"/>
      <g>
        <path class="cls-11" d="M41.8,99.6c1.8,12.9,8.3,16.8,15.3,15.7,7.1-1,12.2-6.6,10.3-19.4-1.8-12.9-8.3-22.6-16.2-21.4-8.4,1.2-11.3,12.3-9.5,25.1Z"/>
        <path class="cls-11" d="M111.3,89.2c1.8,12.9,8.6,16.7,16.1,15.6,7.5-1.1,13-6.7,11.1-19.5-1.8-12.9-8.6-22.5-17-21.3-8.9,1.3-12.1,12.4-10.3,25.2Z"/>
        <path class="cls-1" d="M65.4,108.4c.9-2.5,1.7-7.8,1-12.8-1.9-13.4-9.4-23.4-18.7-22-9.9,1.4-13.7,13-11.8,26.4.8,5.5,2.8,9.5,5,12.1"/>
      </g>
    </g>
    <path class="cls-1" d="M136.3,97.2c1.4-3.1,2-7.2,1.2-12.4-1.9-13.4-9.7-23.3-19.6-21.9-10.6,1.5-14.6,13.2-12.7,26.5,1,6.9,4,11.4,7.1,13.7"/>
  </g>
  <path class="cls-1" d="M17.5,145.2c-6.3,1.6-20.8,6.9-16.8,16.8,3.1,7.6,22.2,9.8,38.8,8.9"/>
  <path class="cls-1" d="M9.5,174.7c6.4,1.7,25.5,2.9,37.2,1.7"/>
</svg>