<?xml version="1.0" encoding="UTF-8"?>
<svg id="_레이어_1" data-name="레이어 1" xmlns="http://www.w3.org/2000/svg" version="1.1" viewBox="0 0 396.3 349.8">
  <defs>
    <style>
      .cls-1 {
        fill: #44af35;
      }

      .cls-1, .cls-2, .cls-3, .cls-4, .cls-5, .cls-6, .cls-7, .cls-8, .cls-9, .cls-10 {
        stroke-linecap: round;
        stroke-linejoin: round;
      }

      .cls-1, .cls-2, .cls-11, .cls-4, .cls-5, .cls-6, .cls-7, .cls-8, .cls-9, .cls-10 {
        stroke: #231815;
      }

      .cls-1, .cls-11, .cls-4, .cls-5, .cls-7, .cls-8, .cls-9, .cls-10 {
        stroke-width: 3.2px;
      }

      .cls-12, .cls-4 {
        fill: #a9cd36;
      }

      .cls-12, .cls-13, .cls-14, .cls-15, .cls-16, .cls-17, .cls-18 {
        stroke-width: 0px;
      }

      .cls-2 {
        stroke-width: 2.4px;
      }

      .cls-2, .cls-3, .cls-11, .cls-6, .cls-10 {
        fill: none;
      }

      .cls-3 {
        stroke: #fff;
        stroke-width: 1.8px;
      }

      .cls-5 {
        fill: #e73828;
      }

      .cls-13 {
        fill: #e0545e;
      }

      .cls-6 {
        stroke-width: 3.2px;
      }

      .cls-7 {
        fill: #29b5b2;
      }

      .cls-14 {
        fill: #231815;
      }

      .cls-8, .cls-18 {
        fill: #fff;
      }

      .cls-15 {
        fill: #00aeeb;
      }

      .cls-16 {
        fill: #f9d3bf;
      }

      .cls-17 {
        fill: #f09ba5;
      }

      .cls-9 {
        fill: #0068b6;
      }
    </style>
  </defs>
  <g>
    <g>
      <path class="cls-15" d="M118.4,192.6c6.8-1.8,14-2.2,21.3-1,29.7,4.9,50,30.9,45.5,67.5-4.4,35.9-35.5,55.3-65.2,50.3-5.5-.9-10.7-2.7-15.4-5.3"/>
      <g>
        <path class="cls-3" d="M169,256.9c-5.1,30.6-20.6,54.1-40.2,53.1-16.6-.9-22.5-32.1-17.4-62.7,5.1-30.6,22.5-53.2,39-50.5,16.4,2.7,23.8,29.5,18.7,60.1Z"/>
        <line class="cls-3" x1="137.6" y1="251.1" x2="183.1" y2="258.7"/>
        <path class="cls-3" d="M145.8,218.8s41.5,7.2,37.3,40.5"/>
        <path class="cls-3" d="M134.8,284.7s41.6,6.6,48.4-26.2"/>
      </g>
      <path class="cls-6" d="M185,260.2c-5.3,31.9-31.3,54.8-64.1,48.6-29.9-5.7-50.1-34.9-44.8-66.8,5.3-31.9,33.9-53,64.1-48.6,33.7,4.9,50.1,34.9,44.8,66.8Z"/>
    </g>
    <path class="cls-9" d="M153,254.2c-5.8,34.6-22.7,60.6-40.8,57.6-18.1-3-28.2-33.5-22.4-68.1,5.8-34.6,25.1-60.2,43.3-57.2,18.1,3,25.7,33.1,19.9,67.7Z"/>
  </g>
  <path class="cls-12" d="M70.7,300.3s-20.8,4.1-31,4.9c0,0-9.4,4.2-19.9,2.8-9.6-1.3-12.9-4.4-14.8-14.1-1.9-9.7-4.2-21.7-4.8-25-1.1-6.5.9-16.1,11.7-19.2,7.2-2.1,22-1.9,24.9,13.2l4.8-.4"/>
  <path class="cls-18" d="M14.5,286.3c1.9,9.6.9,16.6-3.2,16.6-3,0-4.2-4.9-5.5-11.7-1.3-6.9-5.7-20-1.3-21.7,4.6-1.7,8.5,9.5,10,16.8Z"/>
  <path class="cls-10" d="M70.7,300.3s-20.8,4.1-31,4.9c0,0-9.4,4.2-19.9,2.8-9.6-1.3-12.9-4.4-14.8-14.1-1.9-9.7-4.2-21.7-4.8-25-1.1-6.5.9-16.1,11.7-19.2,7.2-2.1,22-1.9,24.9,13.2l4.8-.4"/>
  <ellipse class="cls-4" cx="36" cy="229" rx="23.2" ry="21.2" transform="translate(-175.5 134.1) rotate(-56.9)"/>
  <path class="cls-4" d="M137.6,226.3s2.7,27.1-9.1,55.1c-9.8,23.1-36.5,23.3-59,17-19.9-5.6-31.8-24.5-28.1-40.8,5.8-25.5,21.2-40,21.2-40"/>
  <g>
    <path class="cls-5" d="M18.1,265.6h0c-2.6-2.2-3-6.1-.8-8.8L229.9,2.2c2.2-2.6,6.1-3,8.8-.8h0c2.6,2.2,3,6.1.8,8.8L25.8,266.1c-1.4,1.7-5.4,1.6-7.7-.4Z"/>
    <path class="cls-8" d="M208.3,37.8c2.5,2.1,4.3,4.1,3.8,5.1,0,0,0,0,0,0l21-25.3c1.8-2-.3-4.3-2.4-6.2-2.9-2.6-5.5-3.5-7.1-1.7l-21.1,25.3s0,0,0,0c.7-.4,3.3.7,5.7,2.8Z"/>
    <path class="cls-8" d="M165.1,89.5c2.5,2.1,4.3,4.1,3.8,5.1,0,0,0,0,0,0l21-25.3c1.8-2-.3-4.3-2.4-6.2-2.9-2.6-5.5-3.5-7.1-1.7l-21.1,25.3s0,0,0,0c.7-.4,3.3.7,5.7,2.8Z"/>
    <path class="cls-8" d="M46.6,231.4c2.5,2.1,4.3,4.1,3.8,5.1,0,0,0,0,0,0l21-25.3c1.8-2-.3-4.3-2.4-6.2-2.9-2.6-5.5-3.5-7.1-1.7l-21.1,25.3s0,0,0,0c.7-.4,3.3.7,5.7,2.8Z"/>
  </g>
  <path class="cls-7" d="M186.4,82.8l47.7-57.7s9.5-5.1,25.6,5.4c16.1,10.5,19,16.5,40.6,17.4,21.7.8,61.8-10.5,96,17.1,0,0-36.4,28.5-37.9,73.5,0,0-18.6-15.3-54.5-8.2-34.6,6.9-54.2,0-60-3.6-28.6-17.8-25.4-36-57.5-43.9Z"/>
  <g>
    <path class="cls-4" d="M121.3,291c.8,8.7,2.6,24.8,3,36.4.7,19.3-13.2,22.9-41.2,22.2-19.7-.5-21-8.8-21.4-14.9-.2-3.8-.2-11.8,8-14.9h0c0-.6-2.1-15.2-3.8-23.3"/>
    <path class="cls-4" d="M77.7,317.8c-7.6,0-14.3,4.3-15.4,10.5"/>
  </g>
  <path class="cls-18" d="M320,86.2c-.6-.7-1.3-1.3-1.9-1.9.4-.4.9-.9,1.3-1.4l16.6-20.2h-14.1s-9.5,11.7-9.5,11.7c-2.6,3.2-4.2,4.5-7,4.5-2.8,0-4.4-1.3-7-4.5l-9.4-11.6h-14.1s16.4,20.2,16.4,20.2c.4.5.9,1,1.3,1.4-.6.6-1.2,1.2-1.9,1.8l-8.5,9.8c-6.2,0-16.7,0-16.7,0-9.6,0-15.5-5.8-15.5-15.1,0,0,0-17.3,0-17.6-.3,0-12.1,0-12.4,0,0,.3,0,17.6,0,17.6-.1,20.7,14.7,26,27.3,26h20.4c1.6,0,2.4-.4,3.3-1.4l9.4-11c2.7-3.1,4.4-4.5,7.3-4.5,2.9,0,4.6,1.3,7.3,4.4l10.4,12.2c1.7,0,8.3,0,14.7,0l-17.7-20.8Z"/>
  <g>
    <path class="cls-9" d="M142.3,242c-2.8-2.6-11.9-7-18.6-7.2l1-7.8s10.9,1.7,18.2,7.3"/>
    <path class="cls-9" d="M135.4,271.3c-3.8,1.1-18.7.3-25.6-4l-13.4,4.6s16.6,9.7,36.6,7.9"/>
  </g>
  <path class="cls-10" d="M120.9,186c.1,0,.3,0,.4,0,18.1,3,25.7,33.1,19.9,67.7-3.1,18.9-9.6,35.2-17.8,45.6"/>
  <path class="cls-1" d="M140.3,219.9s4.3,19.3-33.9,10.3l-22.4-4c-37.2-6.6-26.8-25.8-26.8-25.8"/>
  <g>
    <path class="cls-1" d="M93.3,219.3s-12.2-11.1-22.8-4.3c-5.2,3.4-6.1,8.7-9.9,11,0,0,7.4,5.6,14.7,6.7,8.5,1.3,10.8-2.3,10.8-2.3"/>
    <path class="cls-1" d="M75.2,222.3s9.2-4.2,15.5,3.5"/>
  </g>
  <path class="cls-4" d="M128.7,233.8c4.1,4,3.9,13.8,1.3,19-14.5,29.5-65.3,19.6-65.3,19.6-18.6-4.1-29.7-16.1-28.7-31.7,1.1-17.8,16.5-25,30.9-19.2,6,2.4,9.6,6.9,11.6,11.2,0,0,6.3,1.6,19.2-.4,12.9-2,23.2-6.2,30.9,1.5Z"/>
  <g>
    <path class="cls-1" d="M98.3,218.7s15.5-4.4,18.9,11.2c1.3,6-2.2,10.9-.7,16.2,0,0-10.8,1.3-17.1-3.2-6.1-4.3-6.2-10.5-6.2-10.5"/>
    <path class="cls-1" d="M104.8,230.1c-1.8-3.2-6-5.1-10.6-4.3"/>
  </g>
  <path class="cls-1" d="M98.7,216.9s-5.9,4.2-5.4,15c0,0-3,1.1-8.2-1.1-4.7-2-1.7-15.1,3.2-16.4"/>
  <g>
    <path class="cls-2" d="M137.6,114.4s9-1.5,13.8,7.3"/>
    <path class="cls-2" d="M68.9,101.9s-7.9-4.6-15.5,1.9"/>
  </g>
  <g>
    <path class="cls-4" d="M226.4,25.9s2.6.2,4.1,2.5"/>
    <path class="cls-4" d="M188.7,72.1s2.9.6,3.9,3.1"/>
  </g>
  <g>
    <g>
      <g>
        <path class="cls-12" d="M127.6,64.4c22.7,4.4,47,19.4,56,40.6,15.5,36.5,1,71.4,1.3,75.9.6,9.2-.4,17.5-2.6,23.2-3.9,10-12.7,19.6-37.7,21.6-13,1-36.2-1.6-47.2-3.7h0c-11.1-2.1-33.6-8.2-45.3-14-22.5-11-27.1-23.2-27.1-34,0-6.1,2.1-14.1,6.1-22.5,1.9-4,1.3-41.8,29.2-70,16.2-16.3,44.3-21.4,67-17.1h.2Z"/>
        <path class="cls-16" d="M158.5,203.3c-1.6,5.8-10.3,9-19.4,7.1-9.1-1.9-15.2-8.1-13.6-13.9,1.6-5.8,10.3-9,19.4-7.1,9.1,1.9,15.2,8.1,13.6,13.9Z"/>
        <g>
          <path class="cls-2" d="M138.2,115.3s9-1.4,13.8,7.4"/>
          <path class="cls-2" d="M69.6,102.1s-7.8-4.7-15.5,1.8"/>
        </g>
        <g>
          <path class="cls-18" d="M115.3,160.6c-2.5,13.3,3.7,19.5,12.6,21.2,8.9,1.7,17-1.8,19.5-15.1,2.5-13.3-1.6-25.2-11.5-27.1-10.5-2-18.1,7.7-20.7,21Z"/>
          <g>
            <path class="cls-18" d="M42.2,146.6c-2.5,13.3,3.7,19.5,12.6,21.2s17-1.8,19.5-15.1c2.5-13.3-1.6-25.2-11.5-27.1-10.5-2-18.1,7.7-20.7,21Z"/>
            <g>
              <path class="cls-14" d="M48.3,148.3c-2.4,12.8,2.7,18.6,10.2,20,7.5,1.4,14.4-2.1,16.9-14.8,2.4-12.8-.8-24.1-9.1-25.7-8.8-1.7-15.5,7.7-18,20.5Z"/>
              <path class="cls-14" d="M121.3,162.1c-2.4,12.8,2.7,18.6,10.2,20,7.5,1.4,14.4-2.1,16.9-14.8,2.4-12.8-.8-24.1-9.1-25.7-8.8-1.7-15.5,7.7-18,20.5Z"/>
              <path class="cls-2" d="M69.1,164.5c1.8-2,4.3-6.8,5.3-11.8,2.5-13.3-1.6-25.2-11.5-27.1-10.5-2-18.1,7.7-20.7,21-1,5.5-.4,9.9,1,13.1"/>
            </g>
          </g>
          <path class="cls-2" d="M142.3,178c2.4-2.5,4.2-6.1,5.2-11.3,2.5-13.3-1.6-25.2-11.5-27.1-10.5-2-18.1,7.7-20.7,21-1.3,6.8,0,12.1,2.2,15.3"/>
        </g>
      </g>
      <path class="cls-16" d="M25.1,174.7c-.6,6-1,13,8.1,14.6,9.2,1.5,17.1-2.1,17.7-8,.6-6-6.3-12.1-15.5-13.6-9.2-1.5-9.7,1.1-10.3,7.1Z"/>
      <g>
        <path class="cls-13" d="M103.5,180.6c-.7,17-9.7,24.8-19.3,23.1-8.6-1.5-15.3-8.2-9.9-27.5l29.3,4.4Z"/>
        <path class="cls-17" d="M98.9,196.5c-.2,2.8-4.6,6.9-11.4,7.2-6.8.3-12.5-2.9-12.7-6.1-.3-4.6,5.1-8.6,11.9-8.9,6.8-.3,12.6,3.6,12.3,7.8Z"/>
        <path class="cls-10" d="M103.8,180.6c-.8,18-9.9,24.8-19.5,23.1-8.6-1.6-15.3-7.1-9.8-27.5l29.3,4.5Z"/>
      </g>
    </g>
    <path class="cls-11" d="M127.6,64.4c22.7,4.4,47,19.4,56,40.6,15.5,36.5,1,71.4,1.3,75.9.6,9.2-.4,17.5-2.6,23.2-3.9,10-12.7,19.6-37.7,21.6-13,1-36.2-1.6-47.2-3.7h0c-11.1-2.1-33.6-8.2-45.3-14-22.5-11-27.1-23.2-27.1-34,0-6.1,2.1-14.1,6.1-22.5,1.9-4,1.3-41.8,29.2-70,16.2-16.3,44.3-21.4,67-17.1h.2Z"/>
  </g>
  <g>
    <g>
      <path class="cls-2" d="M131.9,330.4s.5,9.3-3.5,12.8"/>
      <path class="cls-2" d="M140.3,324.9s1.5,10.4-1.9,16.3"/>
    </g>
    <path class="cls-2" d="M3.2,307.1s5.1,7.3,16.7,7.1"/>
  </g>
</svg>