<svg width="36" height="36" viewBox="0 0 36 36" fill="none" xmlns="http://www.w3.org/2000/svg">
<path d="M26.4727 15.6444V14.4726C26.4727 9.79556 22.6771 6 18.0001 6C13.323 6 9.52747 9.79556 9.52747 14.4726V15.6444" stroke="#111111" stroke-linecap="round" stroke-linejoin="round"/>
<path d="M7.56741 14.9496H9.52741V23.9096H7.56741C5.59704 23.9096 4 22.3126 4 20.3422V18.5171C4 16.5467 5.59704 14.9496 7.56741 14.9496Z" stroke="#008C74" stroke-linecap="round" stroke-linejoin="round"/>
<path d="M28.4326 23.9097H26.4726V14.9497H28.4326C30.403 14.9497 32 16.5467 32 18.5171V20.3423C32 22.3126 30.403 23.9097 28.4326 23.9097Z" stroke="#008C74" stroke-linecap="round" stroke-linejoin="round"/>
<path d="M26.4726 23.9097V24.3037C26.4726 26.8963 24.3674 29.0015 21.7748 29.0015H20.8311" stroke="#111111" stroke-linecap="round" stroke-linejoin="round"/>
<path d="M18.9438 30.8888C19.9862 30.8888 20.8312 30.0438 20.8312 29.0014C20.8312 27.959 19.9862 27.114 18.9438 27.114C17.9014 27.114 17.0564 27.959 17.0564 29.0014C17.0564 30.0438 17.9014 30.8888 18.9438 30.8888Z" stroke="#111111" stroke-linecap="round" stroke-linejoin="round"/>
<path d="M15.4282 14.9496V16.1319" stroke="#111111" stroke-linecap="round" stroke-linejoin="round"/>
<path d="M20.5615 14.9496V16.1319" stroke="#111111" stroke-linecap="round" stroke-linejoin="round"/>
<path d="M20.5615 19.9377C20.5615 20.8503 19.8148 21.597 18.9022 21.597H17.0874C16.1748 21.597 15.4282 20.8503 15.4282 19.9377" stroke="#111111" stroke-linecap="round" stroke-linejoin="round"/>
</svg>
