<svg width="36" height="36" viewBox="0 0 36 36" fill="none" xmlns="http://www.w3.org/2000/svg">
<path d="M17.28 30H12.61L13.59 25.52H16.3L17.28 30Z" stroke="#121212" stroke-linecap="round" stroke-linejoin="round"/>
<path d="M24.88 18.29V24.35C24.88 25 24.36 25.52 23.71 25.52H6.17C5.52 25.52 5 25 5 24.35V13.31C5 12.66 5.52 12.14 6.17 12.14H18.74" stroke="#121212" stroke-linecap="round" stroke-linejoin="round"/>
<path d="M24.88 18.29V22.85H5V13.31C5 12.66 5.52 12.14 6.17 12.14H18.74" stroke="#121212" stroke-linecap="round" stroke-linejoin="round"/>
<path d="M10.8 30H19.08" stroke="#121212" stroke-linecap="round" stroke-linejoin="round"/>
<path d="M24.88 18.28C28.271 18.28 31.02 15.531 31.02 12.14C31.02 8.74897 28.271 6 24.88 6C21.489 6 18.74 8.74897 18.74 12.14C18.74 15.531 21.489 18.28 24.88 18.28Z" stroke="#008C74" stroke-linecap="round" stroke-linejoin="round"/>
<path d="M27.54 9.87L26.31 14.75L24.88 9.87L23.45 14.75L22.23 9.87" stroke="#008C74" stroke-linecap="round" stroke-linejoin="round"/>
<path d="M21.7 12.22H28.06" stroke="#008C74" stroke-linecap="round" stroke-linejoin="round"/>
</svg>
