<svg width="36" height="36" viewBox="0 0 36 36" fill="none" xmlns="http://www.w3.org/2000/svg">
<g clip-path="url(#clip0_22_45)">
<path d="M5.28003 32.38C8.42003 32.38 8.16003 29.34 8.16003 29.34V23.25" stroke="#555555" stroke-width="1.5" stroke-linecap="round" stroke-linejoin="round"/>
<path d="M12.25 10.75H25.25" stroke="#555555" stroke-width="1.5" stroke-linecap="round" stroke-linejoin="round"/>
<path d="M12.25 14.75H25.25" stroke="#555555" stroke-width="1.5" stroke-linecap="round" stroke-linejoin="round"/>
<path d="M12.25 18.75H18.75" stroke="#555555" stroke-width="1.5" stroke-linecap="round" stroke-linejoin="round"/>
<path d="M12.25 23.25H16.26" stroke="#555555" stroke-width="1.5" stroke-linecap="round" stroke-linejoin="round"/>
<path d="M28.75 16.25V4.54C28.75 3.55 27.95 2.75 26.96 2.75H10.04C9.05 2.75 8.25 3.55 8.25 4.54L8.17 23.25H2.75V29C2.75 31.8 5.07 32.75 7.9 32.75H23.61C26.44 32.75 28.76 30.8 28.76 28V23.25" stroke="#555555" stroke-width="1.5" stroke-linecap="round" stroke-linejoin="round"/>
<path d="M23.33 28.28L19.33 29.03L20.08 25.03" stroke="#009881" stroke-width="1.5" stroke-linecap="round" stroke-linejoin="round"/>
<path d="M23.45 28.28L33.12 18.65C33.31 18.46 33.31 18.14 33.12 17.94L30.46 15.28C30.27 15.09 29.95 15.09 29.75 15.28L20.08 24.91L23.44 28.27L23.45 28.28Z" stroke="#009881" stroke-width="1.5" stroke-linecap="round" stroke-linejoin="round"/>
</g>
<defs>
<clipPath id="clip0_22_45">
<rect width="32.01" height="31.5" fill="white" transform="translate(2 2)"/>
</clipPath>
</defs>
</svg>
