<svg width="36" height="36" viewBox="0 0 36 36" fill="none" xmlns="http://www.w3.org/2000/svg">
<path d="M28.49 14.37V12.99C28.49 7.47 24.02 3 18.5 3C12.98 3 8.51001 7.47 8.51001 12.99V14.37" stroke="#555555" stroke-width="1.5" stroke-linecap="round" stroke-linejoin="round"/>
<path d="M6.2 13.55H8.51V24.11H6.2C3.88 24.11 2 22.23 2 19.91V17.76C2 15.44 3.88 13.56 6.2 13.56V13.55Z" stroke="#009881" stroke-width="1.5" stroke-linecap="round" stroke-linejoin="round"/>
<path d="M30.8 24.1101H28.49V13.5501H30.8C33.12 13.5501 35 15.4301 35 17.7501V19.9001C35 22.2201 33.12 24.1001 30.8 24.1001V24.1101Z" stroke="#009881" stroke-width="1.5" stroke-linecap="round" stroke-linejoin="round"/>
<path d="M28.4901 24.1101V24.5701C28.4901 27.6301 26.0101 30.1101 22.9501 30.1101H21.8301" stroke="#555555" stroke-width="1.5" stroke-linecap="round" stroke-linejoin="round"/>
<path d="M19.6101 32.3399C20.8362 32.3399 21.8301 31.346 21.8301 30.1199C21.8301 28.8938 20.8362 27.8999 19.6101 27.8999C18.3841 27.8999 17.3901 28.8938 17.3901 30.1199C17.3901 31.346 18.3841 32.3399 19.6101 32.3399Z" stroke="#555555" stroke-width="1.5" stroke-linecap="round" stroke-linejoin="round"/>
<path d="M15.48 13.55V14.95" stroke="#555555" stroke-width="1.5" stroke-linecap="round" stroke-linejoin="round"/>
<path d="M21.52 13.55V14.95" stroke="#555555" stroke-width="1.5" stroke-linecap="round" stroke-linejoin="round"/>
<path d="M21.52 19.4299C21.52 20.5099 20.65 21.3799 19.57 21.3799H17.43C16.35 21.3799 15.48 20.5099 15.48 19.4299" stroke="#555555" stroke-width="1.5" stroke-linecap="round" stroke-linejoin="round"/>
</svg>
