<svg width="36" height="36" viewBox="0 0 36 36" fill="none" xmlns="http://www.w3.org/2000/svg">
<path d="M17.8701 9.05005V27.07" stroke="black" stroke-linecap="round" stroke-linejoin="round"/>
<path d="M18.05 8.7C18.7955 8.7 19.4 8.09558 19.4 7.35C19.4 6.60442 18.7955 6 18.05 6C17.3044 6 16.7 6.60442 16.7 7.35C16.7 8.09558 17.3044 8.7 18.05 8.7Z" stroke="black" stroke-linecap="round" stroke-linejoin="round"/>
<path d="M9.54004 10.1801H26.21" stroke="black" stroke-linecap="round" stroke-linejoin="round"/>
<path d="M5 18.95L9.47 10.36L13.94 18.95" stroke="black" stroke-linecap="round" stroke-linejoin="round"/>
<path d="M21.6699 18.95L26.1399 10.36L30.6099 18.95" stroke="black" stroke-linecap="round" stroke-linejoin="round"/>
<path d="M16.75 27.3H19" stroke="black" stroke-linecap="round" stroke-linejoin="round"/>
<path d="M14.95 30H20.8" stroke="black" stroke-linecap="round" stroke-linejoin="round"/>
<path d="M5 18.74C5 20.99 7 23.21 9.47 23.21C11.94 23.21 13.94 20.99 13.94 18.74H5Z" stroke="#008C74" stroke-linecap="round" stroke-linejoin="round"/>
<path d="M21.6699 18.74C21.6699 20.99 23.6699 23.21 26.1399 23.21C28.6099 23.21 30.6099 20.99 30.6099 18.74H21.6699Z" stroke="#008C74" stroke-linecap="round" stroke-linejoin="round"/>
</svg>
