<svg width="36" height="36" viewBox="0 0 36 36" fill="none" xmlns="http://www.w3.org/2000/svg">
<path d="M12.16 6H24.45C25.23 6 25.86 6.63 25.86 7.41V30H10.74V7.41C10.74 6.63 11.37 6 12.15 6H12.16Z" stroke="black" stroke-linecap="round" stroke-linejoin="round"/>
<path d="M9 30H27.6" stroke="black" stroke-linecap="round" stroke-linejoin="round"/>
<path d="M20.5201 24.99H16.0701V30H20.5201V24.99Z" stroke="#008C74" stroke-linecap="round" stroke-linejoin="round"/>
<path d="M14.26 9.70996H14.83" stroke="black" stroke-linecap="round" stroke-linejoin="round"/>
<path d="M18.02 9.70996H18.58" stroke="black" stroke-linecap="round" stroke-linejoin="round"/>
<path d="M21.77 9.70996H22.34" stroke="black" stroke-linecap="round" stroke-linejoin="round"/>
<path d="M14.26 13.11H14.83" stroke="black" stroke-linecap="round" stroke-linejoin="round"/>
<path d="M18.02 13.11H18.58" stroke="black" stroke-linecap="round" stroke-linejoin="round"/>
<path d="M21.77 13.11H22.34" stroke="black" stroke-linecap="round" stroke-linejoin="round"/>
<path d="M14.26 16.51H14.83" stroke="black" stroke-linecap="round" stroke-linejoin="round"/>
<path d="M18.02 16.51H18.58" stroke="black" stroke-linecap="round" stroke-linejoin="round"/>
<path d="M21.77 16.51H22.34" stroke="black" stroke-linecap="round" stroke-linejoin="round"/>
<path d="M14.26 19.92H14.83" stroke="black" stroke-linecap="round" stroke-linejoin="round"/>
<path d="M18.02 19.92H18.58" stroke="black" stroke-linecap="round" stroke-linejoin="round"/>
<path d="M21.77 19.92H22.34" stroke="black" stroke-linecap="round" stroke-linejoin="round"/>
</svg>
