<svg width="36" height="36" viewBox="0 0 36 36" fill="none" xmlns="http://www.w3.org/2000/svg">
<path d="M18.88 17.27L20.62 26.86L17.65 30L14.5 26.86L16.25 17.27" fill="#DAEEEB"/>
<path d="M18.88 17.27L20.62 26.86L17.65 30L14.5 26.86L16.25 17.27" stroke="#008C74" stroke-linecap="round" stroke-linejoin="round"/>
<path d="M17.63 11.91L20.1 14.83L18.88 17.27H17.56H17.57H16.25L15.02 14.83L17.49 11.91" fill="#DAEEEB"/>
<path d="M17.63 11.91L20.1 14.83L18.88 17.27H17.56H17.57H16.25L15.02 14.83L17.49 11.91" stroke="#008C74" stroke-linecap="round" stroke-linejoin="round"/>
<path d="M17.49 11.91L11.11 6L7 8.66L12.97 17.24L17.49 11.91Z" stroke="#111111" stroke-linecap="round" stroke-linejoin="round"/>
<path d="M17.6299 11.91L24.0099 6L28.1199 8.66L22.1499 17.24L17.6299 11.91Z" stroke="#111111" stroke-linecap="round" stroke-linejoin="round"/>
</svg>
