<svg width="36" height="36" viewBox="0 0 36 36" fill="none" xmlns="http://www.w3.org/2000/svg">
<path d="M22.31 20.7759C20.82 19.5859 18.95 18.8259 16.74 18.8259C10.77 18.8359 7 24.7759 7 29.7059H26.48C26.48 28.7459 26.34 27.7359 26.08 26.7459" stroke="#111111" stroke-linecap="round" stroke-linejoin="round"/>
<path d="M21.8742 15.3922C23.0493 12.5553 21.7021 9.30285 18.8651 8.12774C16.0282 6.95263 12.7757 8.29983 11.6006 11.1368C10.4255 13.9737 11.7727 17.2262 14.6097 18.4013C17.4466 19.5764 20.6991 18.2292 21.8742 15.3922Z" stroke="#111111" stroke-linecap="round" stroke-linejoin="round"/>
<path d="M27.87 23.0779C27.9017 21.2943 26.4816 19.8227 24.698 19.7909C22.9144 19.7591 21.4428 21.1793 21.411 22.9629C21.3793 24.7465 22.7994 26.2181 24.583 26.2499C26.3666 26.2816 27.8382 24.8615 27.87 23.0779Z" fill="#DAEEEB" stroke="#008C74" stroke-linecap="round" stroke-linejoin="round"/>
<path d="M26.8401 25.376L29.2201 27.756" stroke="#008C74" stroke-linecap="round" stroke-linejoin="round"/>
</svg>
