<svg width="36" height="36" viewBox="0 0 36 36" fill="none" xmlns="http://www.w3.org/2000/svg">
<path d="M10.16 22.02V25.7C10.16 25.7 9.95998 28.85 7.97998 28.85" stroke="#111111" stroke-linecap="round" stroke-linejoin="round"/>
<path d="M14.2 11.47H22.8" stroke="#111111" stroke-linecap="round" stroke-linejoin="round"/>
<path d="M14.2 14.99H20.85" stroke="#111111" stroke-linecap="round" stroke-linejoin="round"/>
<path d="M14.2 18.5H18.5" stroke="#111111" stroke-linecap="round" stroke-linejoin="round"/>
<path d="M14.2 22.02H18.5" stroke="#111111" stroke-linecap="round" stroke-linejoin="round"/>
<path d="M26.32 16.16V7.41C26.32 6.63 25.69 6 24.91 6H11.7C10.92 6 10.29 6.63 10.29 7.41L10.23 22.02H6V25.73C6 27.92 7.76 29.44 9.9 29.44H22.41" stroke="#111111" stroke-linecap="round" stroke-linejoin="round"/>
<path d="M25.0299 25.53C22.4999 25.53 20.4399 23.47 20.4399 20.94C20.4399 18.41 22.4999 16.35 25.0299 16.35C27.5599 16.35 29.6199 18.41 29.6199 20.94C29.6199 23.47 27.5599 25.53 25.0299 25.53Z" stroke="#008C74" stroke-linecap="round" stroke-linejoin="round"/>
<path d="M25.0299 23.57C23.5799 23.57 22.4099 22.39 22.4099 20.95C22.4099 19.51 23.5899 18.33 25.0299 18.33C26.4699 18.33 27.6499 19.51 27.6499 20.95C27.6499 22.39 26.4699 23.57 25.0299 23.57Z" stroke="#008C74" stroke-linecap="round" stroke-linejoin="round"/>
<path d="M27.4899 25.14V30L25.1399 28.68L22.7999 30V25.14" stroke="#008C74" stroke-linecap="round" stroke-linejoin="round"/>
</svg>
