<svg width="36" height="36" viewBox="0 0 36 36" fill="none" xmlns="http://www.w3.org/2000/svg">
<path d="M19.64 27.62H8.41C7.63 27.62 7 26.99 7 26.21V10.38C7 9.59997 7.63 8.96997 8.41 8.96997H10.43" stroke="#111111" stroke-linecap="round" stroke-linejoin="round"/>
<path d="M19.62 8.96997H21.64C22.42 8.96997 23.05 9.59997 23.05 10.38V21.21" stroke="#111111" stroke-linecap="round" stroke-linejoin="round"/>
<path d="M16.65 7.72C16.65 6.77 15.88 6 14.93 6C13.98 6 13.21 6.77 13.21 7.72H11.43C10.88 7.72 10.43 8.17 10.43 8.72V8.86C10.43 9.64 11.06 10.27 11.84 10.27H18.2C18.98 10.27 19.61 9.64 19.61 8.86V8.72C19.61 8.17 19.16 7.72 18.61 7.72H16.64H16.65Z" stroke="#111111" stroke-miterlimit="10"/>
<path d="M10.43 13.9H19.66" stroke="#111111" stroke-linecap="round" stroke-linejoin="round"/>
<path d="M10.43 16.98H19.66" stroke="#111111" stroke-linecap="round" stroke-linejoin="round"/>
<path d="M10.43 20.0699H19.66" stroke="#111111" stroke-linecap="round" stroke-linejoin="round"/>
<path d="M24.562 29.8883C26.9325 29.3288 28.4005 26.9536 27.8411 24.5832C27.2816 22.2127 24.9064 20.7446 22.536 21.3041C20.1655 21.8636 18.6974 24.2388 19.2569 26.6092C19.8164 28.9797 22.1916 30.4477 24.562 29.8883Z" stroke="#008C74" stroke-miterlimit="10"/>
<path d="M22.8999 27.1401H22.8799C22.7899 27.1401 22.7099 27.0801 22.6699 27.0101L21.7499 25.5101C21.6699 25.3801 21.7099 25.2101 21.8399 25.1201C21.9699 25.0401 22.1399 25.0801 22.2299 25.2101L22.9499 26.3901L24.9299 24.1401C25.0299 24.0201 25.2099 24.0101 25.3299 24.1101C25.4499 24.2101 25.4599 24.3901 25.3599 24.5101L23.1299 27.0401C23.0799 27.1001 22.9999 27.1401 22.9199 27.1401H22.8999Z" stroke="#008C74" stroke-width="0.75" stroke-miterlimit="10"/>
</svg>
