<?xml version="1.0" encoding="UTF-8"?>
<svg id="_레이어_1" data-name="레이어 1" xmlns="http://www.w3.org/2000/svg" version="1.1" viewBox="0 0 139.6 30.2">
  <defs>
    <style>
      .cls-1 {
        fill: #fff;
        stroke-width: 0px;
      }
    </style>
  </defs>
  <path class="cls-1" d="M5.9.7v22.9h1.5c2.2,0,4.4,0,6.6-.2,2.2-.1,4.3-.4,6.4-.8l.7,5.7c-2.3.4-4.5.6-6.8.8-2.3.2-4.6.3-6.9.3H0V.7h5.9Z"/>
  <path class="cls-1" d="M23.1,29.4l9.2-14.1L22.9.7h6.8l6.1,9.4L42,.7h6.8l-9.6,14.6,4,6.3c.7,1.2,1.6,2,2.7,2.6,1,.6,2.3.9,3.8.9l-1.1,5.1c-1.1,0-2.1,0-3-.3s-1.8-.5-2.6-.9c-.8-.4-1.6-1-2.4-1.7-.7-.7-1.5-1.6-2.2-2.7l-2.7-4.1-5.8,8.9h-6.8Z"/>
  <path class="cls-1" d="M78,21.8c0-.6-.2-1.1-.5-1.5-.3-.4-.7-.8-1.2-1.1-.5-.3-1.1-.5-1.8-.8-.7-.2-1.4-.4-2.2-.6-1.2-.3-2.4-.6-3.7-1-1.3-.4-2.4-.9-3.5-1.5-1-.6-1.9-1.5-2.6-2.5-.7-1-1-2.4-1-4s.3-2.9.8-4c.5-1.1,1.3-2,2.3-2.7,1-.7,2.1-1.2,3.5-1.6,1.4-.3,2.9-.5,4.5-.5s2.2,0,3.3.3c1,.2,2,.5,3,.9,1,.4,1.9,1,2.8,1.7.9.7,1.7,1.5,2.5,2.6l-4.7,3.7c-.8-1.2-1.8-2.1-2.9-2.6-1.1-.5-2.4-.8-3.9-.8s-1.4,0-2,.2c-.6.1-1.2.3-1.6.5s-.8.5-1.1.9c-.3.4-.4.9-.4,1.4s.2,1.1.6,1.5c.4.4.9.8,1.6,1.1.7.3,1.4.6,2.3.8.9.2,1.8.5,2.7.7,1.2.3,2.3.7,3.5,1.1,1.2.4,2.2.9,3.2,1.6s1.7,1.5,2.3,2.4c.6,1,.9,2.2.9,3.7s-.3,2.7-.9,3.7c-.6,1-1.5,1.9-2.5,2.6-1.1.7-2.3,1.2-3.7,1.5-1.4.3-2.9.5-4.4.5s-2.2,0-3.3-.3c-1.1-.2-2.1-.5-3.2-.9-1-.4-2-.9-2.9-1.5s-1.7-1.3-2.4-2.2l3.8-5c1,1.4,2.2,2.4,3.5,3.1,1.3.6,2.9,1,4.6,1s2.5-.2,3.4-.6c.9-.4,1.3-1,1.3-1.9Z"/>
  <path class="cls-1" d="M88.4,29.4V.7h6l12,19.3V.7h5.8v28.7h-6l-12-19.3v19.3h-5.8Z"/>
  <path class="cls-1" d="M133,21.8c0-.6-.2-1.1-.5-1.5-.3-.4-.7-.8-1.2-1.1-.5-.3-1.1-.5-1.8-.8-.7-.2-1.4-.4-2.2-.6-1.2-.3-2.4-.6-3.7-1-1.3-.4-2.4-.9-3.5-1.5-1-.6-1.9-1.5-2.6-2.5-.7-1-1-2.4-1-4s.3-2.9.8-4c.5-1.1,1.3-2,2.3-2.7,1-.7,2.1-1.2,3.5-1.6,1.4-.3,2.9-.5,4.5-.5s2.2,0,3.3.3c1,.2,2,.5,3,.9,1,.4,1.9,1,2.8,1.7.9.7,1.7,1.5,2.5,2.6l-4.7,3.7c-.8-1.2-1.8-2.1-2.9-2.6-1.1-.5-2.4-.8-3.9-.8s-1.4,0-2,.2c-.6.1-1.2.3-1.6.5s-.8.5-1.1.9c-.3.4-.4.9-.4,1.4s.2,1.1.6,1.5c.4.4.9.8,1.6,1.1.7.3,1.4.6,2.3.8.9.2,1.8.5,2.7.7,1.2.3,2.3.7,3.5,1.1,1.2.4,2.2.9,3.2,1.6s1.7,1.5,2.3,2.4c.6,1,.9,2.2.9,3.7s-.3,2.7-.9,3.7c-.6,1-1.5,1.9-2.5,2.6-1.1.7-2.3,1.2-3.7,1.5-1.4.3-2.9.5-4.4.5s-2.2,0-3.3-.3c-1.1-.2-2.1-.5-3.2-.9-1-.4-2-.9-2.9-1.5s-1.7-1.3-2.4-2.2l3.8-5c1,1.4,2.2,2.4,3.5,3.1,1.3.6,2.9,1,4.6,1s2.5-.2,3.4-.6c.9-.4,1.3-1,1.3-1.9Z"/>
</svg>