<?xml version="1.0" encoding="UTF-8"?>
<svg id="_레이어_1" data-name="레이어 1" xmlns="http://www.w3.org/2000/svg" version="1.1" viewBox="0 0 32 32">
  <defs>
    <style>
      .cls-1 {
        fill: none;
      }

      .cls-1, .cls-2 {
        stroke-width: 0px;
      }

      .cls-2 {
        fill: #5bb433;
      }
    </style>
  </defs>
  <g>
    <path class="cls-2" d="M8.8,12.9c-.5,0-.9.4-.9.9s.4.9.9.9.9-.4.9-.9-.4-.9-.9-.9Z"/>
    <circle class="cls-2" cx="17.5" cy="13.7" r="1"/>
    <path class="cls-2" d="M25.4,4.1H6.6c-1.9,0-3.4,1.5-3.4,3.4v11.2c0,1.9,1.5,3.4,3.4,3.4h6.6l2.3,5.3s.2.5.5.5h0c.4,0,.5-.5.5-.5l2.3-5.3h6.6c1.9,0,3.4-1.5,3.4-3.4V7.5c0-1.9-1.5-3.4-3.4-3.4ZM11.2,14c0,2-2.1,2.1-2.1,2.1-.8,0-1.3-.5-1.3-.5v.4h-1.5v-6.3s0,0,0,0h0c0,0,1.5,0,1.5,0v2.4c.4-.6,1.4-.6,1.4-.6,2.3.2,2,2.6,2,2.6ZM13.9,11.6v4.3h-1.5v-4.3c0-.6-.7-.7-.7-.7v-1.5c2.4,0,2.2,2.2,2.2,2.2ZM17.5,16.1c-1.4,0-2.5-1-2.5-2.3s1.1-2.3,2.5-2.3,2.5,1,2.5,2.3-1.1,2.3-2.5,2.3ZM25.7,16.1s0,2.2-2.2,2.2h-.7v-1.4h.4s.9,0,.9-1.4c0,0-.2.6-1.5.6,0,0-1.9-.1-1.9-2v-.7s0-1.9,2.1-2c0,0,.8,0,1.3.6v-.5h1.5v4.6Z"/>
    <circle class="cls-2" cx="23.3" cy="13.7" r=".9"/>
  </g>
  <rect class="cls-1" width="32" height="32"/>
</svg>